# Blender v2.82 (sub 7) OBJ File: ''
# www.blender.org
mtllib slide.mtl
o Bolt_Cube.002
v 0.773330 -0.795082 -3.160112
v 0.773330 -1.123382 -3.160112
v 0.788192 -1.123382 -3.108752
v 0.788192 -0.795082 -3.108752
v 0.946729 -0.779227 -3.238129
v 0.909674 -0.779310 -3.268041
v 0.904878 -0.715402 -3.243295
v 0.933249 -0.715513 -3.222291
v 0.969718 -0.779077 -3.175733
v 0.955288 -0.779114 -3.225059
v 0.942383 -0.715609 -3.209716
v 0.953227 -0.715666 -3.175658
v 0.940728 -0.699652 -3.127915
v 0.951214 -0.699652 -3.160191
v 0.951214 -0.526713 -3.160191
v 0.940728 -0.526713 -3.127915
v 0.904194 -0.699652 -3.095473
v 0.931648 -0.699652 -3.115419
v 0.931648 -0.526713 -3.115419
v 0.904194 -0.526713 -3.095473
v 0.855568 -0.699652 -3.090700
v 0.889504 -0.699652 -3.090700
v 0.889504 -0.526713 -3.090700
v 0.855568 -0.526713 -3.090700
v 0.813424 -0.699652 -3.115419
v 0.840878 -0.699652 -3.095473
v 0.840878 -0.526713 -3.095473
v 0.813424 -0.526713 -3.115419
v 0.793859 -0.699652 -3.160191
v 0.804344 -0.699652 -3.127915
v 0.804344 -0.526713 -3.127915
v 0.793859 -0.526713 -3.160191
v 0.804344 -0.699652 -3.207912
v 0.793859 -0.699652 -3.175636
v 0.793859 -0.526713 -3.175636
v 0.804344 -0.526713 -3.207912
v 0.948329 -0.795082 -3.240009
v 0.948329 -1.123382 -3.240009
v 0.910183 -1.123382 -3.271129
v 0.910183 -0.795082 -3.271129
v 0.895151 -0.779405 -3.273289
v 0.849924 -0.779405 -3.273289
v 0.854991 -0.715332 -3.248099
v 0.890081 -0.715332 -3.248099
v 0.951214 -0.699652 -3.175636
v 0.940728 -0.699652 -3.207912
v 0.940728 -0.526713 -3.207912
v 0.951214 -0.526713 -3.175636
v 0.828951 -1.181636 -3.131261
v 0.818344 -1.181636 -3.167913
v 0.828951 -1.181636 -3.204569
v 0.856069 -1.181636 -3.226691
v 0.889004 -1.181636 -3.226691
v 0.916125 -1.181636 -3.204569
v 0.926731 -1.181636 -3.167913
v 0.916125 -1.181636 -3.131261
v 0.889004 -1.181636 -3.109136
v 0.856069 -1.181636 -3.109136
v 0.894136 -1.137761 -3.064741
v 0.850936 -1.137761 -3.064741
v 0.859937 -1.175379 -3.095840
v 0.885135 -1.175379 -3.095840
v 0.944292 -1.137869 -3.099030
v 0.908877 -1.137869 -3.070139
v 0.899927 -1.175271 -3.101063
v 0.920864 -1.175271 -3.118140
v 0.966664 -1.138019 -3.159998
v 0.952871 -1.138019 -3.112329
v 0.929630 -1.175122 -3.131289
v 0.937940 -1.175122 -3.159998
v 0.952871 -1.138019 -3.223498
v 0.966664 -1.138019 -3.175828
v 0.937940 -1.175122 -3.175828
v 0.929632 -1.175122 -3.204541
v 0.908877 -1.137869 -3.265688
v 0.944292 -1.137869 -3.236797
v 0.920864 -1.175271 -3.217687
v 0.899927 -1.175271 -3.234767
v 0.850936 -1.137761 -3.271089
v 0.894136 -1.137761 -3.271089
v 0.885135 -1.175379 -3.239987
v 0.859937 -1.175379 -3.239987
v 0.800781 -1.137869 -3.236797
v 0.836199 -1.137869 -3.265688
v 0.845145 -1.175271 -3.234767
v 0.824209 -1.175268 -3.217687
v 0.799887 -0.518592 -3.167913
v 0.813763 -0.518592 -3.125212
v 0.850085 -0.518592 -3.098821
v 0.894987 -0.518592 -3.098821
v 0.931309 -0.518592 -3.125212
v 0.945185 -0.518592 -3.167913
v 0.931309 -0.518592 -3.210615
v 0.894984 -0.518592 -3.237007
v 0.850085 -0.518592 -3.237007
v 0.813763 -0.518592 -3.210615
v 0.792202 -1.138019 -3.112329
v 0.778408 -1.138019 -3.159998
v 0.807135 -1.175122 -3.159998
v 0.815443 -1.175122 -3.131289
v 0.836199 -1.137869 -3.070139
v 0.800781 -1.137869 -3.099030
v 0.824209 -1.175271 -3.118140
v 0.845145 -1.175271 -3.101063
v 0.956881 -0.795082 -3.108752
v 0.956881 -1.123382 -3.108752
v 0.971743 -1.123382 -3.160112
v 0.971743 -0.795082 -3.160112
v 0.910183 -0.795082 -3.064698
v 0.910183 -1.123382 -3.064698
v 0.948329 -1.123382 -3.095818
v 0.948329 -0.795082 -3.095818
v 0.789787 -0.779114 -3.225057
v 0.775354 -0.779077 -3.175733
v 0.791845 -0.715666 -3.175658
v 0.802690 -0.715609 -3.209716
v 0.849302 -0.795082 -3.059566
v 0.849302 -1.123382 -3.059566
v 0.895770 -1.123382 -3.059566
v 0.895770 -0.795082 -3.059566
v 0.796743 -0.795082 -3.095818
v 0.796743 -1.123382 -3.095818
v 0.834889 -1.123382 -3.064698
v 0.834889 -0.795082 -3.064698
v 0.788192 -0.795082 -3.227076
v 0.788192 -1.123382 -3.227076
v 0.773330 -1.123382 -3.175715
v 0.773330 -0.795082 -3.175715
v 0.840878 -0.699652 -3.240355
v 0.813424 -0.699652 -3.220407
v 0.813424 -0.526713 -3.220407
v 0.840878 -0.526713 -3.240355
v 0.889504 -0.699652 -3.245128
v 0.855568 -0.699652 -3.245128
v 0.855568 -0.526713 -3.245128
v 0.889504 -0.526713 -3.245128
v 0.931648 -0.699652 -3.220407
v 0.904194 -0.699652 -3.240355
v 0.904194 -0.526713 -3.240355
v 0.931648 -0.526713 -3.220407
v 0.955288 -0.779114 -3.110771
v 0.969718 -0.779077 -3.160095
v 0.953227 -0.715666 -3.160168
v 0.942383 -0.715609 -3.126111
v 0.778408 -1.138019 -3.175828
v 0.792202 -1.138019 -3.223498
v 0.815443 -1.175122 -3.204541
v 0.807135 -1.175122 -3.175828
v 0.849924 -0.779405 -3.062538
v 0.895151 -0.779405 -3.062538
v 0.890081 -0.715332 -3.087727
v 0.854991 -0.715332 -3.087727
v 0.895770 -0.795082 -3.276261
v 0.895770 -1.123382 -3.276261
v 0.849302 -1.123382 -3.276261
v 0.849302 -0.795082 -3.276261
v 0.835398 -0.779310 -3.268041
v 0.798347 -0.779227 -3.238129
v 0.811823 -0.715513 -3.222288
v 0.840194 -0.715402 -3.243295
v 0.971743 -0.795082 -3.175715
v 0.971743 -1.123382 -3.175715
v 0.956881 -1.123382 -3.227076
v 0.956881 -0.795082 -3.227076
v 0.909674 -0.779310 -3.067786
v 0.946729 -0.779227 -3.097698
v 0.933249 -0.715513 -3.113539
v 0.904878 -0.715402 -3.092532
v 0.798347 -0.779227 -3.097698
v 0.835398 -0.779310 -3.067786
v 0.840194 -0.715402 -3.092532
v 0.811823 -0.715513 -3.113539
v 0.834889 -0.795082 -3.271129
v 0.834889 -1.123382 -3.271129
v 0.796743 -1.123382 -3.240009
v 0.796743 -0.795082 -3.240009
v 0.775354 -0.779077 -3.160095
v 0.789787 -0.779114 -3.110771
v 0.802690 -0.715609 -3.126111
v 0.791845 -0.715666 -3.160168
vt 0.712509 0.532941
vt 0.712509 0.398974
vt 0.731613 0.398985
vt 0.731614 0.532952
vt 0.766033 0.484982
vt 0.752224 0.484626
vt 0.760298 0.458393
vt 0.770219 0.458742
vt 0.789709 0.485000
vt 0.771347 0.485004
vt 0.775415 0.458858
vt 0.788176 0.458901
vt 0.803448 0.452022
vt 0.793317 0.452283
vt 0.793317 0.381713
vt 0.803448 0.381452
vt 0.884918 0.571967
vt 0.896515 0.572231
vt 0.896515 0.642692
vt 0.884918 0.642427
vt 0.867934 0.572269
vt 0.879400 0.571974
vt 0.879400 0.642435
vt 0.867934 0.642729
vt 0.731700 0.572258
vt 0.741168 0.572554
vt 0.741168 0.643124
vt 0.731700 0.642828
vt 0.714422 0.572159
vt 0.726535 0.572182
vt 0.726536 0.642752
vt 0.714422 0.642730
vt 0.698968 0.572477
vt 0.709099 0.572217
vt 0.709099 0.642787
vt 0.698968 0.643047
vt 0.765537 0.491481
vt 0.765537 0.625448
vt 0.751208 0.625048
vt 0.751208 0.491081
vt 0.853094 0.485493
vt 0.837813 0.485887
vt 0.836594 0.459102
vt 0.848449 0.458797
vt 0.787994 0.452340
vt 0.775880 0.452318
vt 0.775880 0.381748
vt 0.787994 0.381770
vt 0.947976 0.406030
vt 0.950857 0.421259
vt 0.946175 0.435892
vt 0.935963 0.444142
vt 0.924222 0.443217
vt 0.915098 0.433444
vt 0.912217 0.418216
vt 0.916899 0.403583
vt 0.927111 0.395333
vt 0.938852 0.396258
vt 0.877943 0.392780
vt 0.863348 0.393156
vt 0.870008 0.378536
vt 0.878522 0.378317
vt 0.898879 0.393166
vt 0.883552 0.392745
vt 0.884127 0.378364
vt 0.893188 0.378613
vt 0.794843 0.631372
vt 0.809967 0.631009
vt 0.801238 0.645906
vt 0.792129 0.646124
vt 0.771657 0.631421
vt 0.789387 0.631430
vt 0.786673 0.646183
vt 0.775994 0.646177
vt 0.916179 0.458544
vt 0.904264 0.445782
vt 0.913085 0.438655
vt 0.920129 0.446200
vt 0.837900 0.631828
vt 0.852495 0.631452
vt 0.845835 0.646072
vt 0.837321 0.646291
vt 0.816964 0.631442
vt 0.832291 0.631863
vt 0.831716 0.646244
vt 0.822655 0.645995
vt 0.905460 0.499987
vt 0.905460 0.481654
vt 0.914891 0.466823
vt 0.930150 0.461157
vt 0.945409 0.466822
vt 0.954840 0.481654
vt 0.954840 0.499986
vt 0.945409 0.514818
vt 0.930150 0.520483
vt 0.914891 0.514818
vt 0.730759 0.393079
vt 0.713029 0.393070
vt 0.715743 0.378317
vt 0.726422 0.378323
vt 0.946894 0.380930
vt 0.958810 0.393693
vt 0.949988 0.400820
vt 0.942944 0.393275
vt 0.811579 0.491111
vt 0.811579 0.625077
vt 0.795284 0.625468
vt 0.795284 0.491501
vt 0.883361 0.532257
vt 0.883361 0.398499
vt 0.899870 0.398952
vt 0.899870 0.532711
vt 0.691683 0.539919
vt 0.707317 0.539558
vt 0.708901 0.565656
vt 0.698189 0.565950
vt 0.862194 0.532657
vt 0.862194 0.398898
vt 0.877893 0.398494
vt 0.877894 0.532253
vt 0.736879 0.533019
vt 0.736879 0.399052
vt 0.751208 0.399452
vt 0.751208 0.533418
vt 0.690837 0.533389
vt 0.690837 0.399422
vt 0.707132 0.399032
vt 0.707133 0.532999
vt 0.830924 0.452641
vt 0.819328 0.452376
vt 0.819328 0.381916
vt 0.830924 0.382181
vt 0.847909 0.452339
vt 0.836443 0.452634
vt 0.836443 0.382173
vt 0.847909 0.381878
vt 0.770716 0.452242
vt 0.761247 0.451945
vt 0.761247 0.381375
vt 0.770716 0.381672
vt 0.810733 0.484581
vt 0.795099 0.484942
vt 0.793515 0.458844
vt 0.804226 0.458549
vt 0.707573 0.393128
vt 0.692449 0.393490
vt 0.701178 0.378594
vt 0.710287 0.378376
vt 0.862749 0.539114
vt 0.878030 0.538721
vt 0.879248 0.565506
vt 0.867394 0.565811
vt 0.853649 0.491951
vt 0.853649 0.625710
vt 0.837950 0.626114
vt 0.837949 0.492355
vt 0.832295 0.485841
vt 0.816296 0.485375
vt 0.819006 0.458899
vt 0.831036 0.459138
vt 0.789907 0.491559
vt 0.789907 0.625526
vt 0.770802 0.625515
vt 0.770802 0.491548
vt 0.883548 0.538767
vt 0.899547 0.539233
vt 0.896837 0.565709
vt 0.884807 0.565470
vt 0.736382 0.539518
vt 0.750191 0.539874
vt 0.742117 0.566107
vt 0.732197 0.565758
vt 0.832483 0.492350
vt 0.832482 0.626109
vt 0.815973 0.625656
vt 0.815973 0.491897
vt 0.712706 0.539500
vt 0.814806 0.452140
vt 0.814456 0.458701
vt 0.731069 0.539496
vt 0.858453 0.539412
vt 0.857922 0.532912
vt 0.852890 0.458576
vt 0.852316 0.452091
vt 0.903961 0.539533
vt 0.904264 0.532963
vt 0.901386 0.565907
vt 0.901037 0.572468
vt 0.857390 0.485196
vt 0.857922 0.491696
vt 0.862953 0.566032
vt 0.863526 0.572517
vt 0.727001 0.565641
vt 0.811579 0.491645
vt 0.811882 0.485074
vt 0.714240 0.565599
vt 0.954658 0.424798
vt 0.955047 0.418349
vt 0.952790 0.406421
vt 0.736154 0.393207
vt 0.937799 0.390733
vt 0.857922 0.399153
vt 0.858996 0.393376
vt 0.923415 0.391737
vt 0.928816 0.390026
vt 0.912083 0.403215
vt 0.915531 0.398106
vt 0.903325 0.393366
vt 0.904264 0.399204
vt 0.908027 0.421126
vt 0.908416 0.414677
vt 0.910283 0.433054
vt 0.766262 0.631293
vt 0.925275 0.448741
vt 0.857921 0.625455
vt 0.856847 0.631232
vt 0.939659 0.447738
vt 0.934257 0.449449
vt 0.950990 0.436259
vt 0.947543 0.441368
vt 0.812517 0.631242
vt 0.811579 0.625404
vt 0.814806 0.381680
vt 0.818302 0.378357
vt 0.712330 0.646153
vt 0.833646 0.378707
vt 0.848816 0.378317
vt 0.852316 0.381630
vt 0.774058 0.378317
vt 0.790085 0.378346
vt 0.901037 0.642928
vt 0.897540 0.646251
vt 0.882197 0.645900
vt 0.867027 0.646291
vt 0.863526 0.642978
vt 0.728358 0.646182
vt 0.731781 0.378332
vt 0.941772 0.378317
vt 0.749457 0.393578
vt 0.904264 0.394840
vt 0.907649 0.389664
vt 0.770634 0.646168
vt 0.921302 0.461157
vt 0.752959 0.630922
vt 0.958810 0.444634
vt 0.955425 0.449811
vt 0.911392 0.514956
vt 0.904264 0.503747
vt 0.956036 0.503746
vt 0.948908 0.514956
vt 0.948908 0.466684
vt 0.956036 0.477894
vt 0.904264 0.477894
vt 0.911391 0.466685
vn -0.9606 0.0000 0.2780
vn 0.5817 0.3210 -0.7474
vn 0.9269 0.2488 -0.2809
vn 0.9511 0.0000 0.3090
vn 0.5878 0.0000 0.8090
vn 0.0000 0.0000 1.0000
vn -0.5878 0.0000 0.8090
vn -0.9511 0.0000 0.3090
vn -0.9511 0.0000 -0.3090
vn 0.6321 0.0000 -0.7749
vn 0.0000 0.3659 -0.9307
vn 0.9511 0.0000 -0.3090
vn 0.0000 -1.0000 0.0000
vn 0.0000 -0.6372 0.7707
vn 0.4955 -0.6208 0.6075
vn 0.7708 -0.5968 0.2231
vn 0.7708 -0.5967 -0.2230
vn 0.4956 -0.6208 -0.6075
vn 0.0000 -0.6372 -0.7707
vn -0.4956 -0.6208 -0.6075
vn 0.0000 1.0000 0.0000
vn -0.7708 -0.5968 0.2230
vn -0.4955 -0.6208 0.6075
vn 0.9606 0.0000 0.2780
vn 0.6321 0.0000 0.7749
vn -0.9269 0.2488 -0.2809
vn -0.6321 0.0000 0.7749
vn -0.9606 0.0000 -0.2780
vn -0.5878 0.0000 -0.8090
vn 0.0000 0.0000 -1.0000
vn 0.5878 0.0000 -0.8090
vn 0.9269 0.2488 0.2809
vn -0.7708 -0.5968 -0.2230
vn 0.0000 0.3659 0.9307
vn -0.5818 0.3210 -0.7473
vn 0.9606 0.0000 -0.2780
vn 0.5818 0.3210 0.7473
vn -0.5818 0.3210 0.7473
vn -0.6321 0.0000 -0.7749
vn -0.9921 0.1255 0.0000
vn -0.8002 0.1491 -0.5809
vn -0.8257 0.1496 0.5439
vn -0.3038 0.1879 -0.9340
vn -0.3309 0.1900 0.9243
vn 0.3038 0.1879 -0.9340
vn 0.3309 0.1900 0.9243
vn 0.8003 0.1492 -0.5808
vn 0.8257 0.1495 0.5439
vn 0.9922 0.1247 0.0000
vn 0.9921 0.1255 0.0000
vn 0.8002 0.1491 0.5809
vn 0.8257 0.1494 -0.5440
vn 0.3038 0.1879 0.9340
vn 0.3310 0.1900 -0.9243
vn -0.3038 0.1879 0.9340
vn -0.3309 0.1900 -0.9243
vn -0.8002 0.1491 0.5808
vn -0.8257 0.1496 -0.5439
vn -0.9922 0.1248 0.0000
vn -0.5025 -0.8646 0.0000
vn -0.9448 -0.3278 0.0000
vn -0.4188 -0.8672 0.2693
vn -0.7872 -0.3378 0.5160
vn -0.1686 -0.8720 0.4595
vn -0.3164 -0.3557 0.8794
vn 0.1686 -0.8721 0.4595
vn 0.3163 -0.3557 0.8795
vn 0.4189 -0.8672 0.2694
vn 0.7872 -0.3378 0.5160
vn 0.5025 -0.8646 0.0000
vn 0.9447 -0.3278 0.0000
vn 0.4188 -0.8672 -0.2695
vn 0.7872 -0.3378 -0.5160
vn 0.1685 -0.8721 -0.4594
vn 0.3164 -0.3556 -0.8795
vn -0.1685 -0.8721 -0.4594
vn -0.3165 -0.3556 -0.8794
vn -0.4188 -0.8672 -0.2695
vn -0.7872 -0.3378 -0.5160
vn -0.6495 0.5962 -0.4719
vn -0.8030 0.5960 0.0000
vn -0.2481 0.5961 -0.7636
vn 0.2481 0.5961 -0.7636
vn 0.6495 0.5962 -0.4719
vn 0.8029 0.5961 0.0000
vn 0.6495 0.5962 0.4719
vn 0.2481 0.5961 0.7636
vn -0.2481 0.5961 0.7636
vn -0.6495 0.5962 0.4719
vn -0.9526 0.1252 0.2772
vn 0.3014 0.3667 -0.8802
vn -0.3014 0.3667 -0.8802
vn -0.3014 0.3667 0.8802
vn -0.6217 0.1615 0.7665
vn -0.9678 0.2517 0.0000
vn -0.7861 0.2960 0.5426
vn 0.0000 0.1863 0.9825
vn 0.3015 0.3667 0.8802
vn 0.7861 0.2960 0.5426
vn 0.6217 0.1618 0.7663
vn 0.9678 0.2517 0.0000
vn 0.7861 0.2960 -0.5425
vn 0.9526 0.1251 0.2772
vn -0.9445 0.1257 -0.3036
vn -0.5838 0.1635 -0.7953
vn 0.9526 0.1251 -0.2772
vn 0.0000 0.1862 -0.9825
vn 0.5837 0.1636 -0.7953
vn 0.6217 0.1618 -0.7663
vn 0.9445 0.1257 -0.3036
vn 0.9445 0.1257 0.3036
vn 0.5838 0.1635 0.7953
vn -0.6218 0.1619 -0.7663
vn -0.5838 0.1635 0.7953
vn -0.9445 0.1257 0.3036
vn -0.9526 0.1252 -0.2772
vn -0.7861 0.2960 -0.5426
vn -0.6517 -0.6266 0.4274
vn -0.9119 -0.3143 0.2639
vn -0.7907 -0.6122 0.0000
vn -0.4312 -0.8936 0.1248
vn -0.2567 -0.6516 0.7138
vn -0.5970 -0.3287 0.7318
vn -0.2752 -0.9003 0.3373
vn 0.2567 -0.6516 0.7138
vn 0.0000 -0.3386 0.9409
vn 0.0000 -0.9048 0.4258
vn 0.6517 -0.6266 0.4274
vn 0.5970 -0.3287 0.7318
vn 0.2752 -0.9003 0.3374
vn 0.7907 -0.6122 0.0000
vn 0.9119 -0.3143 0.2639
vn 0.4312 -0.8936 0.1248
vn 0.6516 -0.6266 -0.4275
vn 0.9119 -0.3143 -0.2639
vn 0.4312 -0.8936 -0.1248
vn 0.2567 -0.6516 -0.7138
vn 0.5970 -0.3287 -0.7318
vn 0.2752 -0.9003 -0.3374
vn -0.2567 -0.6516 -0.7138
vn 0.0000 -0.3384 -0.9410
vn 0.0000 -0.9048 -0.4258
vn -0.6516 -0.6266 -0.4275
vn -0.5970 -0.3287 -0.7318
vn -0.2753 -0.9002 -0.3374
vn -0.9119 -0.3143 -0.2639
vn -0.4312 -0.8936 -0.1248
vn -1.0000 0.0000 0.0000
vn -0.8342 0.0000 0.5515
vn -0.8342 0.0000 -0.5515
vn -0.3355 0.0000 0.9421
vn 0.3354 0.0000 0.9421
vn 0.8342 0.0000 0.5515
vn 1.0000 0.0000 0.0000
vn 0.8342 0.0000 -0.5515
vn 0.3354 0.0000 -0.9421
vn -0.3354 0.0000 -0.9421
vn -0.6725 0.7071 -0.2185
vn -0.4157 0.7071 -0.5721
vn 0.0000 0.7071 -0.7071
vn 0.4156 0.7071 -0.5720
vn 0.6725 0.7071 -0.2185
vn 0.6725 0.7071 0.2185
vn 0.4156 0.7071 0.5721
vn 0.0000 0.7071 0.7071
vn -0.4156 0.7071 0.5721
vn -0.6725 0.7071 0.2185
vn 0.8090 0.0000 0.5878
vn 0.3090 0.0000 0.9511
vn 0.8090 0.0000 -0.5879
vn -0.8090 0.0000 0.5878
vn -0.3090 0.0000 -0.9511
vn 0.3090 0.0000 -0.9511
vn -0.3090 0.0000 0.9511
vn -0.8090 0.0000 -0.5879
vn -0.9269 0.2488 0.2809
usemtl Bolt.002
s 1
f 1/1/1 2/2/1 3/3/1 4/4/1
f 5/5/2 6/6/2 7/7/2 8/8/2
f 9/9/3 10/10/3 11/11/3 12/12/3
f 13/13/4 14/14/4 15/15/4 16/16/4
f 17/17/5 18/18/5 19/19/5 20/20/5
f 21/21/6 22/22/6 23/23/6 24/24/6
f 25/25/7 26/26/7 27/27/7 28/28/7
f 29/29/8 30/30/8 31/31/8 32/32/8
f 33/33/9 34/34/9 35/35/9 36/36/9
f 37/37/10 38/38/10 39/39/10 40/40/10
f 41/41/11 42/42/11 43/43/11 44/44/11
f 45/45/12 46/46/12 47/47/12 48/48/12
f 49/49/13 50/50/13 51/51/13 52/52/13 53/53/13 54/54/13 55/55/13 56/56/13 57/57/13 58/58/13
f 59/59/14 60/60/14 61/61/14 62/62/14
f 63/63/15 64/64/15 65/65/15 66/66/15
f 67/67/16 68/68/16 69/69/16 70/70/16
f 71/71/17 72/72/17 73/73/17 74/74/17
f 75/75/18 76/76/18 77/77/18 78/78/18
f 79/79/19 80/80/19 81/81/19 82/82/19
f 83/83/20 84/84/20 85/85/20 86/86/20
f 87/87/21 88/88/21 89/89/21 90/90/21 91/91/21 92/92/21 93/93/21 94/94/21 95/95/21 96/96/21
f 97/97/22 98/98/22 99/99/22 100/100/22
f 101/101/23 102/102/23 103/103/23 104/104/23
f 105/105/24 106/106/24 107/107/24 108/108/24
f 109/109/25 110/110/25 111/111/25 112/112/25
f 113/113/26 114/114/26 115/115/26 116/116/26
f 117/117/6 118/118/6 119/119/6 120/120/6
f 121/121/27 122/122/27 123/123/27 124/124/27
f 125/125/28 126/126/28 127/127/28 128/128/28
f 129/129/29 130/130/29 131/131/29 132/132/29
f 133/133/30 134/134/30 135/135/30 136/136/30
f 137/137/31 138/138/31 139/139/31 140/140/31
f 141/141/32 142/142/32 143/143/32 144/144/32
f 145/145/33 146/146/33 147/147/33 148/148/33
f 149/149/34 150/150/34 151/151/34 152/152/34
f 153/153/30 154/154/30 155/155/30 156/156/30
f 157/157/35 158/158/35 159/159/35 160/160/35
f 161/161/36 162/162/36 163/163/36 164/164/36
f 165/165/37 166/166/37 167/167/37 168/168/37
f 169/169/38 170/170/38 171/171/38 172/172/38
f 173/173/39 174/174/39 175/175/39 176/176/39
f 1/1/40 177/177/40 114/114/40 128/128/40
f 33/178/41 130/130/41 159/159/41 116/179/41
f 4/4/42 121/121/42 169/169/42 178/180/42
f 43/43/43 160/160/43 129/129/43 134/134/43
f 149/149/44 170/181/44 124/182/44 117/117/44
f 7/183/45 44/44/45 133/133/45 138/184/45
f 120/120/46 109/109/46 165/165/46 150/150/46
f 11/11/47 8/8/47 137/137/47 46/46/47
f 141/185/48 166/166/48 112/112/48 105/186/48
f 143/143/49 12/12/49 45/45/49 14/14/49
f 9/9/50 142/142/50 108/108/50 161/161/50
f 167/167/51 144/187/51 13/188/51 18/18/51
f 5/5/52 10/10/52 164/164/52 37/37/52
f 151/151/53 168/168/53 17/17/53 22/22/53
f 41/41/54 6/189/54 40/190/54 153/153/54
f 171/191/55 152/152/55 21/21/55 26/192/55
f 157/157/56 42/42/56 156/156/56 173/173/56
f 179/193/57 172/172/57 25/25/57 30/30/57
f 176/176/58 125/194/58 113/195/58 158/158/58
f 180/196/59 29/29/59 34/34/59 115/115/59
f 148/197/60 50/50/60 99/198/60
f 2/2/61 127/127/61 145/145/61 98/98/61
f 103/103/62 100/199/62 49/49/62
f 102/200/63 122/122/63 3/3/63 97/97/63
f 61/201/64 104/104/64 58/58/64
f 60/60/65 118/118/65 123/202/65 101/203/65
f 65/204/66 62/205/66 57/57/66
f 64/64/67 110/110/67 119/119/67 59/59/67
f 69/206/68 66/207/68 56/56/68
f 68/208/69 106/209/69 111/111/69 63/63/69
f 73/210/70 70/211/70 55/55/70
f 72/72/71 162/162/71 107/107/71 67/67/71
f 77/77/72 74/212/72 54/54/72
f 76/213/73 38/38/73 163/163/73 71/71/73
f 81/214/74 78/78/74 53/53/74
f 80/80/75 154/154/75 39/215/75 75/216/75
f 85/217/76 82/218/76 52/52/76
f 84/84/77 174/174/77 155/155/77 79/79/77
f 147/219/78 86/220/78 51/51/78
f 146/221/79 126/222/79 175/175/79 83/83/79
f 36/223/80 96/224/80 131/131/80
f 35/35/81 32/32/81 87/225/81
f 132/132/82 95/226/82 135/135/82
f 136/136/83 94/227/83 139/228/83
f 140/140/84 93/229/84 47/47/84
f 48/48/85 92/230/85 15/15/85
f 16/231/86 91/232/86 19/19/86
f 20/20/87 90/233/87 23/23/87
f 24/24/88 89/234/88 27/235/88
f 28/28/89 88/236/89 31/31/89
f 1/1/90 4/4/90 178/180/90 177/177/90
f 7/183/91 6/189/91 41/41/91 44/44/91
f 43/43/92 42/42/92 157/157/92 160/160/92
f 171/191/93 170/181/93 149/149/93 152/152/93
f 121/121/94 124/124/94 170/170/94 169/169/94
f 115/115/95 114/114/95 177/177/95 180/196/95
f 169/169/96 172/172/96 179/193/96 178/180/96
f 117/117/97 120/120/97 150/150/97 149/149/97
f 151/151/98 150/150/98 165/165/98 168/168/98
f 167/167/99 166/166/99 141/185/99 144/187/99
f 109/109/100 112/112/100 166/166/100 165/165/100
f 143/143/101 142/142/101 9/9/101 12/12/101
f 5/5/102 8/8/102 11/11/102 10/10/102
f 105/105/103 108/108/103 142/142/103 141/141/103
f 116/116/104 115/115/104 34/34/104 33/33/104
f 160/160/105 159/159/105 130/130/105 129/129/105
f 161/161/106 164/164/106 10/10/106 9/9/106
f 44/44/107 43/43/107 134/134/107 133/133/107
f 8/8/108 7/7/108 138/138/108 137/137/108
f 37/37/109 40/40/109 6/6/109 5/5/109
f 12/12/110 11/11/110 46/46/110 45/45/110
f 144/144/111 143/143/111 14/14/111 13/13/111
f 153/153/107 156/156/107 42/42/107 41/41/107
f 168/168/112 167/167/112 18/18/112 17/17/112
f 152/152/97 151/151/97 22/22/97 21/21/97
f 173/173/113 176/176/113 158/158/113 157/157/113
f 172/172/114 171/171/114 26/26/114 25/25/114
f 180/196/115 179/193/115 30/30/115 29/29/115
f 125/125/116 128/128/116 114/114/116 113/113/116
f 159/159/117 158/158/117 113/195/117 116/179/117
f 103/237/118 102/200/118 97/97/118 100/100/118
f 3/3/119 2/2/119 98/98/119 97/97/119
f 145/145/120 148/148/120 99/99/120 98/98/120
f 50/50/121 49/49/121 100/199/121 99/198/121
f 61/201/122 60/238/122 101/101/122 104/104/122
f 123/123/123 122/122/123 102/200/123 101/239/123
f 49/49/124 58/58/124 104/104/124 103/103/124
f 65/65/125 64/64/125 59/59/125 62/62/125
f 119/119/126 118/118/126 60/60/126 59/59/126
f 58/58/127 57/57/127 62/205/127 61/201/127
f 69/206/128 68/240/128 63/241/128 66/207/128
f 111/111/129 110/110/129 64/64/129 63/63/129
f 57/57/130 56/56/130 66/207/130 65/204/130
f 73/73/131 72/72/131 67/67/131 70/70/131
f 107/107/132 106/106/132 68/68/132 67/67/132
f 56/56/133 55/55/133 70/211/133 69/206/133
f 77/242/134 76/213/134 71/71/134 74/74/134
f 163/163/135 162/162/135 72/72/135 71/71/135
f 55/55/136 54/54/136 74/212/136 73/210/136
f 81/214/137 80/243/137 75/75/137 78/78/137
f 39/39/138 38/38/138 76/213/138 75/244/138
f 54/54/139 53/53/139 78/78/139 77/77/139
f 85/85/140 84/84/140 79/79/140 82/82/140
f 155/155/141 154/154/141 80/80/141 79/79/141
f 53/53/142 52/52/142 82/218/142 81/214/142
f 147/219/143 146/245/143 83/246/143 86/220/143
f 175/175/144 174/174/144 84/84/144 83/83/144
f 52/52/145 51/51/145 86/220/145 85/217/145
f 127/127/146 126/126/146 146/146/146 145/145/146
f 51/51/147 50/50/147 148/197/147 147/219/147
f 128/128/148 127/127/148 2/2/148 1/1/148
f 122/122/149 121/121/149 4/4/149 3/3/149
f 176/176/150 175/175/150 126/222/150 125/194/150
f 118/118/151 117/117/151 124/182/151 123/202/151
f 110/110/152 109/109/152 120/120/152 119/119/152
f 106/209/153 105/186/153 112/112/153 111/111/153
f 162/162/154 161/161/154 108/108/154 107/107/154
f 38/38/155 37/37/155 164/164/155 163/163/155
f 154/154/156 153/153/156 40/190/156 39/215/156
f 174/174/157 173/173/157 156/156/157 155/155/157
f 36/247/158 35/248/158 87/87/158 96/96/158
f 132/132/159 131/131/159 96/224/159 95/226/159
f 136/136/160 135/135/160 95/226/160 94/227/160
f 140/249/161 139/250/161 94/94/161 93/93/161
f 48/48/162 47/47/162 93/229/162 92/230/162
f 16/251/163 15/252/163 92/92/163 91/91/163
f 20/20/164 19/19/164 91/232/164 90/233/164
f 24/24/165 23/23/165 90/233/165 89/234/165
f 28/253/166 27/254/166 89/89/166 88/88/166
f 32/32/167 31/31/167 88/236/167 87/225/167
f 13/188/168 16/231/168 19/19/168 18/18/168
f 23/23/169 22/22/169 17/17/169 20/20/169
f 137/137/170 140/140/170 47/47/170 46/46/170
f 15/15/154 14/14/154 45/45/154 48/48/154
f 25/25/171 28/28/171 31/31/171 30/30/171
f 35/35/148 34/34/148 29/29/148 32/32/148
f 129/129/172 132/132/172 135/135/172 134/134/172
f 139/228/173 138/184/173 133/133/173 136/136/173
f 27/235/174 26/192/174 21/21/174 24/24/174
f 131/131/175 130/130/175 33/178/175 36/223/175
f 177/177/176 178/180/176 179/193/176 180/196/176
