# Blender v2.82 (sub 7) OBJ File: ''
# www.blender.org
mtllib slide.mtl
o Bollt_Cube.001
v 0.281783 0.892024 -2.092193
v 0.493793 0.891837 -2.064171
v 0.477476 0.891851 -2.091678
v 0.516898 0.891817 -2.230985
v 0.477838 0.891851 -2.229278
v 0.265700 0.740480 -2.257295
v 0.494165 0.740278 -2.256695
v 0.243033 0.740500 -2.257355
v 0.242594 0.740500 -2.090486
v 0.242965 0.740500 -2.231706
v 0.516765 0.740258 -2.230987
v 0.516394 0.740258 -2.089767
v 0.516326 0.740258 -2.064113
v 0.242527 0.740500 -2.064832
v 0.300448 0.892008 -2.216850
v 0.459472 0.891867 -2.216432
v 0.265834 0.892038 -2.257293
v 0.494299 0.891837 -2.256693
v 0.493659 0.740278 -2.064173
v 0.265328 0.892038 -2.064771
v 0.265194 0.740480 -2.064773
v 0.282144 0.892024 -2.229793
v 0.242728 0.892058 -2.090484
v 0.516528 0.891817 -2.089765
v 0.243099 0.892058 -2.231704
v 0.436056 1.418585 -2.190235
v 0.319474 1.380015 -2.225569
v 0.323104 1.418684 -2.190532
v 0.459179 0.891867 -2.104614
v 0.300154 0.892008 -2.105032
v 0.290734 1.166860 -2.126808
v 0.294436 1.380037 -2.195118
v 0.290913 1.166860 -2.195127
v 0.441630 1.166727 -2.095894
v 0.319134 1.380015 -2.096216
v 0.316589 1.166837 -2.096222
v 0.400261 0.916769 -2.096000
v 0.341434 0.908144 -2.119766
v 0.441970 1.166727 -2.225246
v 0.439802 1.379910 -2.225252
v 0.357863 0.916807 -2.225466
v 0.400601 0.916770 -2.225353
v 0.416668 0.908078 -2.201704
v 0.322948 1.418684 -2.131233
v 0.435900 1.418585 -2.130935
v 0.348734 0.916815 -2.126655
v 0.348913 0.916815 -2.194975
v 0.341650 0.908144 -2.201902
v 0.439462 1.379910 -2.095899
v 0.294256 1.380037 -2.126798
v 0.464500 1.379887 -2.126352
v 0.464680 1.379887 -2.194671
v 0.409383 0.916762 -2.194814
v 0.409204 0.916762 -2.126495
v 0.438124 0.908059 -2.119510
v 0.357523 0.916807 -2.096113
v 0.450321 1.399354 -2.207605
v 0.450073 1.399354 -2.113489
v 0.308649 1.399478 -2.113861
v 0.308897 1.399478 -2.207977
v 0.467646 1.166705 -2.126343
v 0.467825 1.166705 -2.194662
v 0.316929 1.166837 -2.225574
v 0.242527 0.740500 -2.064832
v 0.243033 0.740500 -2.257355
v 0.516326 0.740258 -2.064113
v 0.516832 0.740258 -2.256635
v 0.261945 0.892041 -2.078321
v 0.262380 0.892042 -2.243763
v 0.497240 0.891834 -2.077703
v 0.497675 0.891834 -2.243145
v 0.516832 0.740258 -2.256635
vt 0.259183 0.874044
vt 0.266180 0.937647
vt 0.259183 0.932733
vt 0.223662 0.944446
vt 0.224123 0.932734
vt 0.101311 0.780209
vt 0.101311 0.780209
vt 0.101311 0.780209
vt 0.266180 0.826193
vt 0.266180 0.859755
vt 0.266180 0.865850
vt 0.101311 0.780209
vt 0.101311 0.780209
vt 0.101311 0.780209
vt 0.217127 0.862331
vt 0.266180 0.780209
vt 0.266180 0.862331
vt 0.227408 0.879542
vt 0.227408 0.927235
vt 0.304865 0.780209
vt 0.266180 0.822045
vt 0.266249 0.780240
vt 0.266180 0.872649
vt 0.304785 0.941174
vt 0.266180 0.941174
vt 0.217127 0.869130
vt 0.224123 0.874044
vt 0.259644 0.862331
vt 0.138524 0.983836
vt 0.110013 0.938326
vt 0.138524 0.938378
vt 0.266184 0.832289
vt 0.304865 0.865819
vt 0.266249 0.865850
vt 0.205143 0.936338
vt 0.214056 0.971156
vt 0.205143 0.970212
vt 0.255898 0.927235
vt 0.255898 0.879542
vt 0.146388 0.855655
vt 0.161292 0.791879
vt 0.160180 0.855807
vt 0.107920 0.855975
vt 0.139179 0.792052
vt 0.139780 0.855975
vt 0.103393 0.938326
vt 0.118405 0.930935
vt 0.133407 0.933372
vt 0.189807 0.856249
vt 0.171332 0.792009
vt 0.190034 0.792307
vt 0.176073 0.931018
vt 0.182716 0.931124
vt 0.180434 0.933715
vt 0.190034 0.970213
vt 0.190034 0.936338
vt 0.250349 0.893985
vt 0.232942 0.893986
vt 0.231184 0.891840
vt 0.138240 0.780209
vt 0.108521 0.792052
vt 0.109460 0.780209
vt 0.164942 0.780341
vt 0.147500 0.791727
vt 0.152970 0.780209
vt 0.193323 0.920737
vt 0.207099 0.919934
vt 0.199182 0.931988
vt 0.232942 0.912120
vt 0.250349 0.912120
vt 0.252112 0.920838
vt 0.225166 0.909462
vt 0.231184 0.914338
vt 0.258125 0.909461
vt 0.258125 0.896644
vt 0.252112 0.891839
vt 0.225166 0.896644
vt 0.217127 0.919330
vt 0.212189 0.925468
vt 0.102161 0.791837
vt 0.105833 0.786095
vt 0.145539 0.791837
vt 0.141867 0.786095
vt 0.166190 0.786108
vt 0.116146 0.930721
vt 0.101311 0.855760
vt 0.213989 0.855496
vt 0.203810 0.856110
vt 0.170373 0.855939
vt 0.131553 0.930721
vt 0.146388 0.855760
vt 0.190034 0.856913
vt 0.150716 0.938704
vt 0.150716 0.948971
vt 0.146388 0.943206
vt 0.142851 0.938326
vt 0.142851 0.948592
vt 0.138524 0.944091
vt 0.155043 0.938704
vt 0.155043 0.948971
vt 0.150716 0.944469
vt 0.155043 0.946397
vt 0.160819 0.938704
vt 0.160819 0.946398
vt 0.266180 0.869129
vt 0.262730 0.868105
vt 0.223662 0.862332
vt 0.220576 0.868106
vt 0.259644 0.944445
vt 0.262730 0.938671
vt 0.217127 0.937648
vt 0.220576 0.938672
vt 0.304939 0.865850
vt 0.304785 0.872649
vt 0.101311 0.938327
vt 0.110013 0.983784
vt 0.101311 0.983785
vt 0.304939 0.947972
vt 0.266333 0.947972
vt 0.304801 0.832257
vt 0.266180 0.787008
vt 0.266180 0.855532
vt 0.209597 0.780655
vt 0.195821 0.781458
vt 0.168534 0.930928
vt 0.217127 0.780209
vt 0.129295 0.930935
vt 0.101311 0.780209
vt 0.101311 0.780209
vt 0.101311 0.780209
vt 0.266180 0.820097
vt 0.266180 0.820097
vt 0.266180 0.865850
vt 0.101311 0.780209
vt 0.217127 0.780209
vt 0.304796 0.822014
vt 0.209573 0.931988
vt 0.214056 0.935070
vt 0.209573 0.974401
vt 0.143912 0.938326
vt 0.108771 0.933372
vt 0.190034 0.938704
vt 0.165317 0.938310
vt 0.168774 0.933529
vt 0.147190 0.785899
vt 0.211139 0.931290
vt 0.193212 0.926575
vt 0.266333 0.865850
vt 0.266180 0.780209
vt 0.266180 0.862331
vt 0.154743 0.930776
vn 0.0009 1.0000 0.0000
vn -0.3222 0.2512 0.9127
vn 0.3222 -0.6257 -0.7104
vn -0.0000 -0.0002 1.0000
vn -0.0447 -0.3914 -0.9191
vn 0.1798 -0.2223 -0.9583
vn 0.0000 0.0000 0.0000
vn 0.4848 -0.0955 0.8694
vn 0.4483 -0.0038 0.8939
vn -0.0009 -1.0000 -0.0000
vn 0.0026 0.0000 -1.0000
vn -0.0026 -0.0000 1.0000
vn 1.0000 -0.0009 0.0026
vn -1.0000 0.0009 -0.0026
vn 0.0025 0.6713 -0.7412
vn -0.9999 0.0165 -0.0026
vn 0.2629 0.5638 0.7829
vn -0.1024 -0.6343 0.7662
vn -0.0300 0.3498 0.9363
vn 0.0001 -0.9386 -0.3450
vn 0.0028 0.3505 -0.9366
vn -0.7658 0.6431 -0.0020
vn -0.5198 0.8543 -0.0014
vn -0.0013 0.6713 0.7412
vn -0.0014 0.6713 0.7412
vn -0.8030 0.5959 -0.0021
vn 0.8041 0.5945 0.0021
vn 0.6224 0.7685 -0.1487
vn 0.2880 0.9576 0.0008
vn 0.4891 0.8720 -0.0196
vn 0.6710 0.7159 -0.1928
vn 0.2697 0.9597 0.0789
vn -0.6702 0.7167 0.1928
vn -0.6687 0.7171 -0.1965
vn 0.7669 0.1512 -0.6237
vn 0.7636 0.1511 0.6277
vn -0.7666 0.1525 0.6237
vn -0.7633 0.1526 -0.6277
vn 0.7678 -0.1751 0.6164
vn 0.9356 -0.1599 0.3147
vn 0.7484 -0.1754 0.6396
vn 0.7650 0.0108 -0.6439
vn 0.7743 0.0083 -0.6328
vn 0.7636 0.0112 -0.6456
vn -0.7710 0.0096 -0.6368
vn -0.7616 0.0122 -0.6479
vn -0.7602 0.0126 -0.6496
vn -0.9375 -0.1583 0.3099
vn -0.7713 -0.1737 0.6123
vn -0.7521 -0.1741 0.6356
vn 0.9999 0.0148 0.0026
vn 0.0831 -0.9958 0.0390
vn -0.0006 -0.7071 -0.7071
vn 0.7476 -0.0007 0.6641
vn 0.7511 -0.0007 -0.6602
vn 0.7510 -0.0007 -0.6602
vn -0.7511 0.0007 0.6602
vn -0.7476 0.0007 -0.6642
vn 0.2394 0.7382 0.6307
vn -0.2417 0.9319 0.2704
vn 0.0024 -0.0000 -1.0000
vn 0.9737 -0.2277 0.0026
vn -0.7743 0.0096 0.6327
vn -0.7650 0.0122 0.6439
vn -0.7757 0.0092 0.6310
vn -0.9358 -0.1583 -0.3149
vn -0.7680 -0.1737 -0.6164
vn -0.9479 -0.1553 -0.2782
vn 0.7710 -0.1751 -0.6123
vn 0.9373 -0.1599 -0.3098
vn 0.9491 -0.1570 -0.2730
vn 0.7617 0.0109 0.6479
vn 0.7710 0.0083 0.6368
vn 0.7724 0.0079 0.6351
vn -0.9741 -0.2260 -0.0026
vn 0.0008 -0.0003 1.0000
vn 0.0026 0.6713 -0.7412
vn -0.0013 0.6762 0.7368
vn 0.4078 0.8461 0.3433
vn -0.0017 -0.9386 0.3450
vn 0.0025 0.6761 -0.7368
vn 0.0028 0.3483 -0.9374
vn -0.3644 0.9313 -0.0010
vn -0.0012 0.6713 0.7412
vn -0.0015 0.6713 0.7412
vn 0.6089 0.7932 0.0016
vn 0.3901 0.9183 -0.0675
vn 0.4872 0.8640 -0.1270
vn 0.9477 -0.1570 0.2780
vn 0.7757 0.0079 -0.6310
vn -0.7724 0.0092 -0.6351
vn -0.9494 -0.1553 0.2731
vn 0.7511 -0.0006 -0.6602
vn 0.0000 0.0000 1.0000
vn -0.7636 0.0126 0.6455
vn -0.7487 -0.1741 -0.6396
vn 0.7518 -0.1754 -0.6357
vn 0.7602 0.0112 0.6495
usemtl Bolt.001
s 1
f 1/1/1 2/2/1 3/3/1
f 3/3/1 4/4/1 5/5/1
s 2
f 6/6/2 7/7/3 8/8/4
s 3
f 9/9/5 10/10/6 8/11/7
s 2
f 11/12/8 12/13/9 13/14/7
s 4
f 8/15/10 13/16/10 14/17/10
s 1
f 5/5/1 15/18/1 16/19/1
s 5
f 7/20/11 17/21/11 18/22/11
s 6
f 19/23/12 20/24/12 21/25/12
s 1
f 5/5/1 17/26/1 22/27/1
f 22/27/1 23/28/1 1/1/1
s 2
f 12/29/9 4/30/13 24/31/13
s 7
f 25/32/14 9/33/14 23/34/14
s 8
f 26/35/15 27/36/15 28/37/15
s 1
f 3/3/1 16/19/1 29/38/1
f 1/1/1 15/18/1 22/27/1
f 3/3/1 30/39/1 1/1/1
s 9
f 31/40/16 32/41/16 33/42/16
s 10
f 34/43/12 35/44/12 36/45/12
s 11
f 29/46/17 37/47/18 38/48/19
s 12
f 39/49/11 27/50/11 40/51/11
s 13
f 41/52/20 42/53/20 43/54/21
s 14
f 26/35/1 44/55/1 45/56/1
s 15
f 46/57/22 47/58/22 48/59/23
s 16
f 44/60/24 49/61/25 45/62/25
s 17
f 28/63/26 50/64/26 44/65/26
s 18
f 51/66/27 52/67/27 45/68/27
s 19
f 53/69/28 54/70/29 55/71/30
s 20
f 42/72/31 53/69/31 43/73/31
s 21
f 54/70/32 37/74/32 55/71/32
s 22
f 56/75/33 46/57/33 38/76/33
s 23
f 47/58/34 41/77/34 48/59/34
s 24
f 52/67/35 40/78/35 57/79/35
s 25
f 49/61/36 51/80/36 58/81/36
s 26
f 50/82/37 35/44/37 59/83/37
s 27
f 27/50/38 32/41/38 60/84/38
s 28
f 34/43/39 54/85/40 61/86/41
s 29
f 39/87/42 52/67/43 62/88/44
s 30
f 32/41/45 63/89/46 33/42/47
s 31
f 46/90/48 36/45/49 31/91/50
s 32
f 62/88/51 51/66/51 61/92/51
s 3
f 21/93/1 9/94/5 64/95/52
f 10/96/6 6/97/1 65/98/53
s 33
f 12/99/1 19/100/1 66/101/1
s 34
f 7/102/1 11/103/1 67/104/1
s 1
f 23/28/1 20/105/1 68/106/1
f 17/26/1 25/107/1 69/108/1
f 2/2/1 24/109/1 70/110/1
f 4/4/1 18/111/1 71/112/1
s 35
f 19/23/54 24/113/54 2/114/54
s 36
f 18/115/55 11/116/56 7/117/56
s 37
f 21/25/57 23/118/57 9/119/57
s 38
f 17/21/58 10/120/58 25/32/58
s 2
f 19/121/59 21/122/60 14/17/61
s 39
f 53/123/62 61/92/62 54/124/62
s 40
f 50/82/63 36/45/64 35/44/65
s 41
f 47/125/66 63/89/67 41/52/68
s 42
f 39/87/69 53/123/70 42/126/71
s 43
f 34/43/72 51/80/73 49/61/74
s 12
f 41/52/11 39/49/11 42/53/11
s 10
f 56/127/12 34/43/12 36/45/12
s 44
f 47/125/75 31/40/75 33/42/75
s 1
f 1/1/1 68/106/1 20/105/1
f 20/105/1 2/2/1 1/1/1
f 2/2/1 70/110/1 3/3/1
f 3/3/1 70/110/1 24/109/1
f 24/109/1 4/4/1 3/3/1
f 4/4/1 71/112/1 5/5/1
s 2
f 8/8/4 65/128/76 6/6/2
f 7/7/3 67/129/7 72/130/7
f 7/7/3 72/130/7 8/8/4
s 3
f 14/131/7 64/132/52 9/9/5
f 10/10/6 65/133/53 8/11/7
f 8/11/7 14/131/7 9/9/5
s 2
f 72/130/7 67/129/7 11/12/8
f 12/13/9 66/134/7 13/14/7
f 13/14/7 72/130/7 11/12/8
s 4
f 8/15/10 72/135/10 13/16/10
s 1
f 5/5/1 22/27/1 15/18/1
s 5
f 7/20/11 6/136/11 17/21/11
s 6
f 19/23/12 2/114/12 20/24/12
s 1
f 5/5/1 71/112/1 18/111/1
f 18/111/1 17/26/1 5/5/1
f 17/26/1 69/108/1 22/27/1
f 22/27/1 69/108/1 25/107/1
f 25/107/1 23/28/1 22/27/1
f 23/28/1 68/106/1 1/1/1
s 2
f 12/29/9 11/116/8 4/30/13
s 7
f 25/32/14 10/120/14 9/33/14
s 8
f 26/35/15 57/137/15 40/138/15
f 40/138/15 27/36/15 26/35/15
f 27/36/15 60/139/77 28/37/15
s 1
f 3/3/1 5/5/1 16/19/1
f 1/1/1 30/39/1 15/18/1
f 3/3/1 29/38/1 30/39/1
s 9
f 31/40/16 50/64/16 32/41/16
s 10
f 34/43/12 49/61/12 35/44/12
s 11
f 38/48/19 30/140/78 29/46/17
f 29/46/17 55/141/79 37/47/18
f 37/47/18 56/127/80 38/48/19
s 12
f 39/49/11 63/89/11 27/50/11
s 13
f 43/54/21 16/142/81 15/143/81
f 15/143/81 48/144/82 43/54/21
f 48/144/82 41/52/20 43/54/21
s 14
f 26/35/1 28/37/1 44/55/1
s 15
f 48/59/23 15/18/83 30/39/83
f 30/39/83 38/76/23 48/59/23
f 38/76/23 46/57/22 48/59/23
s 16
f 44/60/24 59/83/84 35/44/24
f 35/44/24 49/61/25 44/60/24
f 49/61/25 58/81/85 45/62/25
s 17
f 28/63/26 60/84/26 32/41/26
f 32/41/26 50/64/26 28/63/26
f 50/64/26 59/145/26 44/65/26
s 18
f 57/79/27 26/146/27 52/67/27
f 26/146/27 45/68/27 52/67/27
f 45/68/27 58/147/27 51/66/27
s 19
f 55/71/30 29/38/86 16/19/87
f 16/19/87 43/73/88 55/71/30
f 43/73/88 53/69/28 55/71/30
s 28
f 34/43/39 37/47/89 54/85/40
s 29
f 39/87/42 40/78/90 52/67/43
s 30
f 32/41/45 27/50/91 63/89/46
s 31
f 46/90/48 56/127/92 36/45/49
s 32
f 62/88/51 52/67/51 51/66/51
s 35
f 19/23/54 12/148/54 24/113/54
s 36
f 18/115/55 4/30/93 11/116/56
s 37
f 21/25/57 20/24/57 23/118/57
s 38
f 17/21/58 6/136/58 10/120/58
s 2
f 13/16/7 66/149/7 19/121/59
f 21/122/60 64/150/94 14/17/61
f 14/17/61 13/16/7 19/121/59
s 39
f 53/123/62 62/88/62 61/92/62
s 40
f 50/82/63 31/91/95 36/45/64
s 41
f 47/125/66 33/42/96 63/89/67
s 42
f 39/87/69 62/88/97 53/123/70
s 43
f 34/43/72 61/86/98 51/80/73
s 12
f 41/52/11 63/89/11 39/49/11
s 10
f 56/127/12 37/47/12 34/43/12
s 44
f 47/125/75 46/151/75 31/40/75
