# Blender v2.82 (sub 7) OBJ File: ''
# www.blender.org
mtllib ammo.mtl
o MagClip_Cube.001
v 4.791300 -0.397899 -2.576557
v 4.791300 -0.397899 -1.985894
v 4.490445 -0.397899 -2.132663
v 4.490445 -0.397899 -2.465593
v -2.069031 0.336641 -2.015793
v -2.069031 -0.397899 -2.015793
v 4.791300 0.336641 -1.985894
v 4.484749 0.336641 -2.130575
v -1.762479 0.336641 -2.146335
v 4.791300 0.336641 -2.576557
v 4.864836 0.422488 -2.576557
v 4.864836 -0.483744 -2.576557
v 4.864836 -0.483744 -1.985894
v 4.864836 0.422487 -1.985894
v -2.069031 0.336641 -2.578587
v -2.069031 -0.397899 -2.578587
v 5.119590 0.422487 -1.985894
v 5.119590 0.422488 -2.576557
v -2.112735 0.424056 -2.222464
v -2.112735 0.424056 -2.574811
v -2.514014 0.424056 -2.574811
v -2.514014 0.424056 -2.222464
v -2.514014 -0.487678 -2.574811
v -2.514014 -0.487678 -2.222464
v -2.767171 -0.291913 -2.222464
v -2.767171 -0.291913 -2.570824
v -2.112735 -0.487678 -2.222464
v -2.112735 -0.487678 -2.574811
v -2.048446 -0.399435 -2.574811
v -2.048446 -0.399435 -2.222464
v -2.048446 0.332735 -2.574811
v -2.048446 0.332735 -2.222464
v -2.514014 0.424056 -2.001442
v -2.767171 0.228291 -2.222464
v -2.767171 0.228291 -2.001442
v -2.112735 0.424056 -2.001442
v -2.112735 -0.487678 -2.001442
v -2.048446 -0.399435 -2.001442
v -2.048446 0.332735 -2.001442
v -2.767171 0.228291 -2.570824
v -2.767171 -0.291913 -2.001442
v -2.514014 -0.487678 -2.001442
v 5.119590 -0.483744 -2.576557
v 5.119590 -0.483744 -1.985894
v 5.268298 0.210435 -1.985894
v 5.268298 0.210435 -2.576557
v 5.268298 -0.271693 -2.576557
v 5.268298 -0.271693 -1.985894
v -1.768174 -0.397899 -2.466736
v -1.768174 -0.397899 -2.149515
v -1.762479 0.336641 -2.442965
v 4.484749 0.336641 -2.441894
v 4.434015 -0.356192 -2.175629
v 4.434015 -0.356192 -2.422919
v -1.711744 -0.356192 -2.188145
v -1.711744 -0.356192 -2.423770
v 4.429463 0.280676 -2.424548
v 4.429463 0.280676 -2.184076
v -1.707193 0.280676 -2.425376
v -1.707193 0.280676 -2.196250
vt 0.384418 0.760013
vt 0.364938 0.755623
vt 0.379546 0.755621
vt 0.355308 0.653201
vt 0.328534 0.777976
vt 0.328476 0.653201
vt 0.384423 0.658770
vt 0.391382 0.754470
vt 0.385650 0.758946
vt 0.322260 0.777975
vt 0.292263 0.779312
vt 0.295402 0.777975
vt 0.358502 0.779313
vt 0.325399 0.779313
vt 0.358503 0.761866
vt 0.358502 0.760017
vt 0.384417 0.653201
vt 0.359729 0.659842
vt 0.359724 0.653204
vt 0.322260 0.653201
vt 0.295402 0.653201
vt 0.410341 0.656924
vt 0.410339 0.658774
vt 0.384424 0.656921
vt 0.410344 0.653205
vt 0.435501 0.696851
vt 0.420042 0.702710
vt 0.420042 0.696851
vt 0.425804 0.686684
vt 0.410519 0.692150
vt 0.410344 0.686684
vt 0.439787 0.701996
vt 0.435501 0.695588
vt 0.439787 0.695588
vt 0.435176 0.718604
vt 0.414715 0.712196
vt 0.435176 0.712196
vt 0.410344 0.708176
vt 0.410344 0.702710
vt 0.413165 0.653201
vt 0.410344 0.665635
vt 0.410344 0.654538
vt 0.413165 0.680825
vt 0.410344 0.668402
vt 0.413165 0.667019
vt 0.410344 0.696851
vt 0.439787 0.691568
vt 0.435176 0.708176
vt 0.410519 0.696851
vt 0.425804 0.692150
vt 0.425804 0.696851
vt 0.435501 0.696851
vt 0.430772 0.667020
vt 0.441879 0.677861
vt 0.430772 0.680825
vt 0.435501 0.686684
vt 0.430771 0.653201
vt 0.441879 0.664052
vt 0.430771 0.667019
vt 0.435327 0.708176
vt 0.420042 0.708176
vt 0.425804 0.680825
vt 0.410344 0.712196
vt 0.414715 0.708176
vt 0.414715 0.718604
vt 0.384420 0.761863
vt 0.358506 0.765586
vt 0.325399 0.783947
vt 0.325399 0.779312
vt 0.292263 0.783946
vt 0.435176 0.708176
vt 0.445310 0.718919
vt 0.435176 0.718919
vt 0.458783 0.708176
vt 0.458783 0.718919
vt 0.317645 0.786650
vt 0.300017 0.786650
vt 0.358502 0.783946
vt 0.333144 0.786651
vt 0.445634 0.691568
vt 0.435501 0.680825
vt 0.445634 0.680825
vt 0.384423 0.659838
vt 0.379519 0.664232
vt 0.365600 0.664234
vt 0.410344 0.758949
vt 0.404427 0.663249
vt 0.404397 0.754472
vt 0.390767 0.663247
vt 0.612516 0.375330
vt 0.529127 0.373532
vt 0.600241 0.373531
vt 0.532404 0.177532
vt 0.516774 0.375332
vt 0.612516 0.175731
vt 0.600163 0.177531
vt 0.521292 0.175733
vt 0.702042 0.175733
vt 0.627899 0.177494
vt 0.612516 0.175731
vt 0.697052 0.177496
vt 0.631097 0.373204
vt 0.616740 0.374967
vt 0.702042 0.374969
vt 0.696987 0.373206
vt 0.460862 0.821799
vt 0.458784 0.709181
vt 0.460862 0.708176
vt 0.355366 0.777976
vt 0.384427 0.653201
vt 0.435501 0.702710
vt 0.435501 0.701996
vt 0.413165 0.667019
vt 0.410344 0.679489
vt 0.435501 0.691568
vt 0.435501 0.692150
vt 0.441879 0.669984
vt 0.441879 0.656168
vt 0.435501 0.680825
vt 0.410344 0.708176
vt 0.410344 0.680825
vt 0.410344 0.718604
vt 0.384423 0.765583
vt 0.325399 0.783946
vt 0.445310 0.708176
vt 0.350756 0.786651
vt 0.435501 0.691568
vt 0.458783 0.820794
vn 0.0000 -1.0000 -0.0000
vn -0.0044 -0.0000 1.0000
vn -0.0040 -0.0000 1.0000
vn 0.0000 1.0000 0.0000
vn 0.0001 0.0000 -1.0000
vn -0.0000 0.0000 -1.0000
vn 0.0000 -0.0000 1.0000
vn -0.7594 -0.6506 -0.0000
vn -0.7595 -0.6506 -0.0000
vn -1.0000 0.0000 0.0000
vn 0.0003 0.0000 -1.0000
vn -0.7595 0.6506 0.0000
vn -0.6117 -0.7911 -0.0000
vn 0.8082 -0.5888 -0.0000
vn 1.0000 0.0000 0.0000
vn -0.6117 0.7911 0.0000
vn -0.0157 0.0000 -0.9999
vn 0.8177 0.5756 0.0000
vn 0.8177 0.5757 0.0000
vn 0.8187 0.5742 0.0000
vn 0.8187 -0.5742 -0.0000
vn -0.5944 -0.8042 0.0000
vn 0.0014 -0.7162 -0.6979
vn 0.0020 -0.6811 -0.7322
vn 0.0014 -0.7166 -0.6975
vn -0.0001 -0.7175 0.6966
vn -0.0001 -0.7153 0.6989
vn 0.5944 -0.8042 0.0000
vn -0.7114 0.7028 0.0000
vn 0.0014 0.6900 -0.7238
vn 0.0019 0.6668 -0.7453
vn 0.0019 0.6666 -0.7454
vn 0.7114 0.7028 0.0000
vn -0.0001 0.2997 0.9540
vn -0.0002 0.2962 0.9551
vn 0.0020 -0.6810 -0.7323
vn -0.0001 -0.7152 0.6989
vn 0.0014 0.6903 -0.7236
usemtl Material.012
s 1
f 1/1/1 3/2/1 4/3/1
s 2
f 6/4/2 7/5/3 5/6/2
s 3
f 7/7/4 9/8/4 5/9/4
s 4
f 10/10/5 12/11/6 1/12/5
s 2
f 7/5/3 13/13/7 14/14/7
s 5
f 1/1/8 13/15/9 2/16/9
s 6
f 15/17/10 6/18/10 5/19/10
s 4
f 15/20/11 1/12/5 16/21/11
s 7
f 7/7/12 11/22/12 10/23/12
s 8
f 14/24/4 18/25/4 11/22/4
s 9
f 20/26/4 22/27/4 19/28/4
s 10
f 24/29/13 26/30/13 23/31/13
s 11
f 28/32/14 30/33/14 27/34/14
s 12
f 29/35/15 32/36/15 30/37/15
s 13
f 22/27/16 35/38/16 33/39/16
s 14
f 28/40/6 31/41/6 29/42/6
s 15
f 37/43/7 39/44/7 36/45/7
s 9
f 22/27/4 36/46/4 19/28/4
s 11
f 30/33/14 37/47/14 27/34/14
s 12
f 32/36/15 38/48/15 30/37/15
s 16
f 40/49/10 25/50/10 34/51/10
f 25/50/10 35/52/10 34/51/10
s 15
f 33/53/7 41/54/7 42/55/7
s 10
f 42/56/13 25/50/13 24/29/13
s 17
f 23/57/17 40/58/17 21/59/17
s 13
f 22/27/16 40/60/16 34/61/16
s 18
f 27/62/1 42/56/1 24/29/1
s 19
f 19/63/18 39/64/18 32/36/19
s 15
f 42/55/7 36/45/7 33/53/7
s 14
f 21/59/6 28/40/6 23/57/6
s 18
f 23/31/1 27/62/1 24/29/1
s 19
f 31/65/18 19/63/18 32/36/19
s 20
f 12/66/1 44/67/1 13/15/1
s 2
f 13/13/7 17/68/7 14/14/7
s 4
f 11/69/6 43/70/6 12/11/6
s 21
f 17/71/20 46/72/20 18/73/20
s 22
f 46/72/15 48/74/15 47/75/15
s 4
f 43/70/6 46/76/6 47/77/6
s 2
f 44/78/7 45/79/7 17/68/7
s 23
f 43/80/21 48/81/21 44/82/21
s 1
f 16/83/1 4/3/1 49/84/1
f 16/83/1 50/85/1 6/18/1
f 2/16/1 50/85/1 3/2/1
s 3
f 15/86/4 52/87/4 10/23/4
f 5/9/4 51/88/4 15/86/4
f 10/23/4 8/89/4 7/7/4
usemtl Material.013
s 24
f 4/90/22 53/91/22 54/92/22
s 25
f 55/93/1 54/92/1 53/91/1
s 26
f 3/94/23 55/93/24 53/91/25
s 27
f 49/95/26 54/92/27 56/96/26
s 28
f 50/97/28 56/96/28 55/93/28
s 29
f 52/98/29 58/99/29 8/100/29
s 30
f 57/101/4 60/102/4 58/99/4
s 31
f 8/100/30 60/102/31 9/103/32
s 32
f 51/104/33 60/102/33 59/105/33
s 33
f 51/106/34 57/107/35 52/108/35
usemtl Material.012
s 1
f 1/1/1 2/16/1 3/2/1
s 2
f 6/4/2 2/109/3 7/5/3
s 3
f 7/7/4 8/89/4 9/8/4
s 4
f 10/10/5 11/69/6 12/11/6
s 2
f 7/5/3 2/109/3 13/13/7
s 5
f 1/1/8 12/66/8 13/15/9
s 6
f 15/17/10 16/83/10 6/18/10
s 4
f 15/20/11 10/10/5 1/12/5
s 7
f 7/7/12 14/24/12 11/22/12
s 8
f 14/24/4 17/110/4 18/25/4
s 9
f 20/26/4 21/111/4 22/27/4
s 10
f 24/29/13 25/50/13 26/30/13
s 11
f 28/32/14 29/112/14 30/33/14
s 12
f 29/35/15 31/65/15 32/36/15
s 13
f 22/27/16 34/61/16 35/38/16
s 14
f 28/40/6 20/113/6 31/41/6
s 15
f 37/43/7 38/114/7 39/44/7
s 9
f 22/27/4 33/39/4 36/46/4
s 11
f 30/33/14 38/115/14 37/47/14
s 12
f 32/36/15 39/64/15 38/48/15
s 16
f 40/49/10 26/30/10 25/50/10
f 25/50/10 41/116/10 35/52/10
s 15
f 33/53/7 35/117/7 41/54/7
s 10
f 42/56/13 41/116/13 25/50/13
s 17
f 23/57/17 26/118/17 40/58/17
s 13
f 22/27/16 21/111/16 40/60/16
s 18
f 27/62/1 37/119/1 42/56/1
s 19
f 19/63/18 36/120/18 39/64/18
s 15
f 42/55/7 37/43/7 36/45/7
s 14
f 21/59/6 20/113/6 28/40/6
s 18
f 23/31/1 28/121/1 27/62/1
s 19
f 31/65/18 20/122/18 19/63/18
s 20
f 12/66/1 43/123/1 44/67/1
s 2
f 13/13/7 44/78/7 17/68/7
s 4
f 11/69/6 18/124/6 43/70/6
s 21
f 17/71/20 45/125/20 46/72/20
s 22
f 46/72/15 45/125/15 48/74/15
s 4
f 43/70/6 18/124/6 46/76/6
s 2
f 44/78/7 48/126/7 45/79/7
s 23
f 43/80/21 47/127/21 48/81/21
s 1
f 16/83/1 1/1/1 4/3/1
f 16/83/1 49/84/1 50/85/1
f 2/16/1 6/18/1 50/85/1
s 3
f 15/86/4 51/88/4 52/87/4
f 5/9/4 9/8/4 51/88/4
f 10/23/4 52/87/4 8/89/4
usemtl Material.013
s 24
f 4/90/22 3/94/22 53/91/22
s 25
f 55/93/1 56/96/1 54/92/1
s 26
f 3/94/23 50/97/36 55/93/24
s 27
f 49/95/26 4/90/37 54/92/27
s 28
f 50/97/28 49/95/28 56/96/28
s 29
f 52/98/29 57/101/29 58/99/29
s 30
f 57/101/4 59/105/4 60/102/4
s 31
f 8/100/30 58/99/38 60/102/31
s 32
f 51/104/33 9/103/33 60/102/33
s 33
f 51/106/34 59/128/34 57/107/35
