# Blender v2.82 (sub 7) OBJ File: ''
# www.blender.org
mtllib leftBoot.mtl
o leftBoot
v 0.456724 0.333852 -0.269984
v 0.387746 0.228080 -0.274834
v 0.387802 0.333852 -0.269898
v 0.112030 -0.012900 -0.277028
v 0.051590 -0.012900 0.392212
v 0.043164 -0.012900 -0.272242
v 0.050296 0.333852 0.281400
v 0.119288 0.226110 0.287404
v 0.119342 0.333852 0.291868
v 0.466442 0.031902 -0.275826
v 0.508146 -0.012900 -0.268146
v 0.456692 -0.012900 -0.272760
v 0.519928 0.333852 0.275730
v 0.466584 0.222954 0.267564
v 0.520646 0.219798 0.246076
v 0.529690 0.119782 0.308602
v 0.527682 0.031902 -0.271224
v 0.522258 0.119636 -0.270766
v 0.518102 0.169718 -0.270540
v 0.463734 0.125316 -0.275372
v 0.461670 0.174628 -0.273972
v 0.111994 0.031900 -0.280082
v 0.041194 0.031900 -0.275294
v -0.028632 0.169718 -0.269834
v 0.041200 0.125316 -0.274844
v -0.029600 0.119636 -0.270056
v 0.249872 -0.012900 -0.277200
v 0.120712 -0.012900 0.409476
v 0.257900 0.128438 0.353178
v 0.396120 0.032362 0.385222
v 0.395574 0.128438 0.338468
v 0.048984 0.173532 0.293112
v 0.119558 0.177274 0.310480
v 0.471394 0.124110 0.323534
v 0.535482 0.032362 0.339688
v 0.257184 0.333852 0.291696
v 0.132614 0.333852 0.220664
v -0.021840 0.119782 0.337456
v 0.049110 0.124110 0.345402
v 0.513948 0.219798 -0.270314
v 0.459608 0.223940 -0.272574
v 0.387680 0.031900 -0.280428
v 0.387716 -0.012900 -0.277374
v 0.257132 0.226110 0.287232
v 0.257400 0.177274 0.310308
v -0.020758 0.219798 0.264400
v 0.049210 0.222954 0.271278
v 0.387684 0.130996 -0.279976
v 0.387714 0.179538 -0.277406
v 0.070742 0.333852 0.220740
v 0.512886 0.333852 -0.270108
v 0.515986 -0.012900 0.346114
v 0.464850 -0.012900 0.368870
v 0.441964 0.333852 0.220276
v 0.395026 0.333852 0.291524
v 0.463824 0.333852 0.280882
v 0.474562 0.032362 0.362454
v 0.258480 0.032362 0.402900
v 0.396194 -0.012900 0.391626
v -0.027662 0.219798 -0.269614
v 0.041700 0.174628 -0.273448
v -0.021564 0.169790 0.278180
v 0.120058 0.128438 0.353350
v 0.043196 0.333852 -0.269468
v 0.112060 0.228080 -0.274490
v 0.042198 0.223940 -0.272052
v 0.460692 0.333852 0.187160
v -0.025724 0.333852 -0.269380
v 0.002792 0.333852 -0.242594
v -0.017534 -0.012900 0.374946
v -0.025702 -0.012900 -0.267456
v 0.249838 0.031900 -0.280256
v 0.112118 0.333852 -0.269554
v 0.249902 0.228080 -0.274662
v 0.468870 0.173532 0.285296
v 0.525030 0.169790 0.265428
v 0.394904 0.226110 0.281116
v 0.249960 0.333852 -0.269726
v 0.374602 0.333852 -0.192498
v 0.112000 0.130996 -0.279632
v 0.249872 0.179538 -0.277234
v 0.112030 0.179538 -0.277062
v -0.029606 0.031900 -0.270506
v 0.258556 -0.012900 0.409304
v -0.021476 0.032362 0.368548
v 0.120638 0.032362 0.403072
v -0.018684 0.333852 0.276458
v 0.249842 0.130996 -0.279804
v 0.380094 0.333852 0.220354
v 0.127122 0.333852 -0.192188
v 0.395132 0.177274 0.300610
v 0.455200 0.333852 -0.243214
v 0.049580 0.032362 0.385810
v 0.065252 0.333852 -0.192110
v 0.008282 0.333852 0.187780
v 0.436474 0.333852 -0.192576
v 0.256354 0.333852 0.220508
v 0.250862 0.333852 -0.192342
vt 0.590356 0.612704
vt 0.582907 0.603357
vt 0.585511 0.614322
vt 0.648722 0.837504
vt 0.784992 0.844321
vt 0.650984 0.842676
vt 0.617047 0.613552
vt 0.627335 0.604112
vt 0.622166 0.614321
vt 0.580546 0.573942
vt 0.581394 0.561371
vt 0.576550 0.562988
vt 0.610358 0.611642
vt 0.620415 0.603609
vt 0.612849 0.603427
vt 0.622825 0.580191
vt 0.585590 0.572780
vt 0.589303 0.583972
vt 0.591083 0.593323
vt 0.584458 0.585590
vt 0.586239 0.594941
vt 0.575502 0.575104
vt 0.576550 0.562988
vt 0.580546 0.573942
vt 0.591083 0.593323
vt 0.584458 0.585590
vt 0.589303 0.583972
vt 0.651387 0.826753
vt 0.787539 0.839023
vt 0.657640 0.585846
vt 0.644741 0.550732
vt 0.640400 0.582089
vt 0.625227 0.593246
vt 0.632078 0.593008
vt 0.630223 0.581958
vt 0.622037 0.562071
vt 0.638913 0.620730
vt 0.621010 0.616834
vt 0.622825 0.580191
vt 0.630223 0.581958
vt 0.592595 0.600120
vt 0.587751 0.601739
vt 0.575502 0.575104
vt 0.571705 0.564607
vt 0.645358 0.608491
vt 0.652653 0.596562
vt 0.612849 0.603427
vt 0.620415 0.603609
vt 0.579614 0.587208
vt 0.581394 0.596559
vt 0.615889 0.616425
vt 0.595199 0.611086
vt 0.658979 0.810421
vt 0.777980 0.807395
vt 0.781388 0.812655
vt 0.615889 0.616425
vt 0.622166 0.614321
vt 0.617047 0.613552
vt 0.633097 0.554293
vt 0.618698 0.550574
vt 0.630858 0.546081
vt 0.675286 0.547869
vt 0.643019 0.541589
vt 0.592595 0.600120
vt 0.586239 0.594941
vt 0.617493 0.593216
vt 0.640400 0.582089
vt 0.590356 0.612704
vt 0.582907 0.603357
vt 0.587751 0.601739
vt 0.654052 0.816002
vt 0.784796 0.817915
vt 0.610183 0.614502
vt 0.595199 0.611086
vt 0.596113 0.614375
vt 0.782444 0.849619
vt 0.653244 0.847847
vt 0.559954 0.567095
vt 0.562555 0.576461
vt 0.585511 0.614322
vt 0.573456 0.605781
vt 0.625227 0.593246
vt 0.617493 0.593216
vt 0.627335 0.604112
vt 0.576367 0.616679
vt 0.586424 0.617611
vt 0.571705 0.564607
vt 0.579614 0.587208
vt 0.571568 0.599103
vt 0.581394 0.596559
vt 0.585590 0.572780
vt 0.787470 0.828460
vt 0.622037 0.562071
vt 0.644741 0.550732
vt 0.610358 0.611642
vt 0.643019 0.541589
vt 0.675190 0.542477
vt 0.569413 0.589873
vt 0.621010 0.616834
vt 0.586424 0.617611
vt 0.630858 0.546081
vt 0.581394 0.561371
vt 0.618698 0.550574
vt 0.632078 0.593008
vt 0.596113 0.614375
vt 0.633097 0.554293
vt 0.591269 0.615994
vt 0.610183 0.614502
vt 0.591269 0.615994
vt 0.635919 0.624053
vt 0.663906 0.804841
vt 0.577281 0.619970
vn 0.0116 0.0382 -0.9992
vn 0.0085 0.0437 -0.9990
vn -0.0012 0.0466 -0.9989
vn -0.0000 -1.0000 -0.0000
vn -0.1244 -0.0739 0.9895
vn -0.1951 -0.0704 0.9783
vn -0.1498 -0.0409 0.9879
vn 0.0669 -0.0904 -0.9937
vn 0.0851 -0.0921 -0.9921
vn 0.0770 -0.0770 -0.9941
vn 0.1694 -0.1532 0.9736
vn 0.2786 -0.2031 0.9387
vn 0.3473 -0.2339 0.9081
vn 0.9980 0.0616 -0.0128
vn 0.9980 0.0617 -0.0128
vn 0.9980 0.0618 -0.0128
vn 0.0724 0.0199 -0.9972
vn 0.0692 0.0128 -0.9975
vn 0.0634 0.0310 -0.9975
vn -0.0685 -0.0690 -0.9953
vn -0.0695 -0.0698 -0.9951
vn -0.0673 -0.0717 -0.9952
vn -0.0623 0.0146 -0.9979
vn -0.0647 0.0099 -0.9979
vn -0.0678 0.0053 -0.9977
vn 0.1059 0.4484 0.8875
vn 0.1031 0.4450 0.8896
vn 0.0956 0.4360 0.8948
vn -0.2320 0.4062 0.8839
vn -0.1880 0.3761 0.9073
vn -0.2382 0.4139 0.8786
vn 0.2832 0.3547 0.8911
vn 0.3011 0.3654 0.8808
vn 0.2570 0.3389 0.9051
vn 0.0000 1.0000 0.0000
vn -0.1488 0.7385 0.6576
vn -0.1474 0.7377 0.6588
vn -0.1204 0.7213 0.6821
vn 0.0535 0.0190 -0.9984
vn 0.0524 0.0203 -0.9984
vn 0.0433 0.0388 -0.9983
vn 0.0595 -0.0770 -0.9953
vn 0.0666 -0.0678 -0.9955
vn 0.0011 0.4272 0.9041
vn -0.1707 0.3208 0.9316
vn -0.1679 0.3991 0.9014
vn 0.0581 0.0387 -0.9976
vn 0.0546 0.0447 -0.9975
vn 0.0498 0.0528 -0.9974
vn 0.0106 0.0173 -0.9998
vn 0.0292 0.0083 -0.9995
vn -0.0022 0.0235 -0.9997
vn 0.9965 0.0824 -0.0129
vn 0.9965 0.0827 -0.0129
vn 0.3820 0.0160 0.9240
vn 0.3727 0.0061 0.9279
vn 0.3500 -0.0178 0.9366
vn 0.2999 0.1132 0.9472
vn 0.2888 0.0944 0.9527
vn 0.2779 0.0761 0.9576
vn 0.0585 0.0069 -0.9983
vn 0.0608 0.0046 -0.9981
vn 0.1262 0.1392 0.9822
vn -0.0459 0.0144 -0.9988
vn -0.0425 0.0195 -0.9989
vn -0.0517 0.0054 -0.9986
vn -0.9998 0.0176 0.0131
vn -0.9997 0.0193 0.0129
vn -0.9997 0.0203 0.0128
vn 0.0194 -0.0646 0.9977
vn 0.0890 -0.0843 0.9925
vn 0.0012 -0.0414 0.9991
vn 0.0009 0.6597 0.7515
vn 0.2225 0.4044 0.8871
vn 0.2314 0.4105 0.8820
vn 0.1994 0.3885 0.8996
vn -0.0142 0.0382 -0.9992
vn -0.0074 0.0444 -0.9990
vn -0.0363 0.0238 -0.9991
vn -0.0013 -0.0680 -0.9977
vn -0.0012 -0.0681 -0.9977
vn -0.0012 0.0498 -0.9988
vn 0.2345 0.6157 0.7523
vn 0.2662 0.6209 0.7373
vn 0.2938 0.6402 0.7098
vn 0.2002 0.3542 0.9135
vn 0.1963 0.3490 0.9163
vn 0.1892 0.3394 0.9214
vn -0.0013 0.0045 -1.0000
vn -0.0013 0.0046 -1.0000
vn -0.0012 0.0529 -0.9986
vn -0.0676 0.0049 -0.9977
vn -0.0675 0.0051 -0.9977
vn -0.9999 0.0003 0.0127
vn -0.9999 0.0000 0.0128
vn -0.9999 0.0004 0.0127
vn -0.0134 0.0160 -0.9998
vn -0.0234 0.0098 -0.9997
vn -0.0350 0.0026 -0.9994
vn 0.0011 0.4596 0.8881
vn -0.9998 0.0169 0.0129
vn -0.9998 0.0168 0.0129
vn 0.0012 0.1401 0.9901
vn 0.0397 0.0443 -0.9982
vn 0.0344 0.0529 -0.9980
vn -0.0475 0.0380 -0.9982
vn -0.0439 0.0436 -0.9981
vn -0.0533 0.0288 -0.9982
vn -0.0676 0.0047 -0.9977
vn 0.9999 0.0094 -0.0130
vn 0.9999 0.0096 -0.0129
vn 0.9999 0.0093 -0.0130
vn 0.3474 0.3469 0.8712
vn 0.3493 0.3490 0.8696
vn 0.3623 0.3638 0.8581
vn -0.2350 0.1290 0.9634
vn -0.2416 0.1300 0.9616
vn -0.2401 0.1356 0.9612
vn -0.9963 -0.0850 0.0127
vn -0.9962 -0.0859 0.0127
vn -0.0641 0.0380 -0.9972
vn -0.0606 0.0436 -0.9972
vn -0.0698 0.0289 -0.9971
vn 0.1888 0.6046 0.7738
vn 0.2121 0.6017 0.7700
vn -0.0789 -0.0946 0.9924
vn -0.1499 -0.0930 0.9843
vn 0.0768 0.0096 -0.9970
vn 0.0661 0.0078 -0.9978
vn -0.2328 0.1220 0.9648
vn -0.2393 0.1226 0.9632
vn -0.1602 0.4194 0.8936
vn -0.1799 0.4308 0.8844
vn -0.2110 0.4483 0.8686
vn -0.1643 0.3582 0.9191
vn -0.1812 0.3694 0.9114
vn -0.2171 0.3925 0.8937
vn -0.9997 0.0206 0.0128
vn 0.0584 0.4139 0.9085
vn 0.0465 0.3840 0.9222
vn 0.0412 0.3706 0.9279
vn 0.9965 0.0820 -0.0128
vn 0.9966 0.0818 -0.0128
vn 0.0735 0.6461 0.7597
vn 0.0623 0.6250 0.7781
vn 0.0555 0.6120 0.7889
vn 0.9177 -0.3971 -0.0128
vn 0.9163 -0.4003 -0.0109
vn 0.9163 -0.4003 -0.0114
vn -0.0680 -0.0726 -0.9950
vn -0.0673 -0.0736 -0.9950
vn 0.1625 -0.1018 0.9814
vn 0.1086 -0.1017 0.9889
vn 0.1798 -0.1129 0.9772
vn -0.1636 0.6839 0.7110
vn -0.1664 0.6859 0.7085
vn -0.1235 0.6539 0.7464
vn -0.0012 0.0046 -1.0000
vn 0.0328 0.0244 -0.9992
vn 0.0746 -0.1007 -0.9921
vn 0.0908 -0.1165 0.9890
vn -0.0692 -0.0679 -0.9953
vn 0.1133 0.4572 0.8821
vn 0.3240 0.3789 0.8669
vn -0.1742 0.7530 0.6345
vn 0.0615 0.0096 -0.9981
vn -0.2131 0.2627 0.9410
vn 0.0627 0.0309 -0.9976
vn 0.0417 0.0022 -0.9991
vn 0.4062 0.0422 0.9128
vn 0.3118 0.1336 0.9407
vn -0.0366 0.0286 -0.9989
vn -0.9997 0.0190 0.0130
vn 0.2524 0.4246 0.8695
vn 0.2071 0.3635 0.9083
vn -0.0013 0.0235 -0.9997
vn -0.0380 0.0529 -0.9979
vn -0.0678 0.0045 -0.9977
vn 0.3342 0.3320 0.8821
vn -0.0549 0.0528 -0.9971
vn 0.1872 0.6029 0.7755
vn -0.0927 -0.1030 0.9904
vn 0.0749 0.0098 -0.9971
vn -0.2345 0.1160 0.9652
vn -0.1261 0.3993 0.9081
vn -0.1250 0.3320 0.9350
vn 0.0635 0.4266 0.9022
vn 0.0800 0.6581 0.7487
vn 0.9178 -0.3970 -0.0117
vn -0.2033 0.7113 0.6728
usemtl None.003
s 1
f 1/1/1 2/2/2 3/3/3
s 2
f 4/4/4 5/5/4 6/6/4
s 3
f 7/7/5 8/8/6 9/9/7
s 4
f 10/10/8 11/11/9 12/12/10
s 5
f 13/13/11 14/14/12 15/15/13
s 6
f 16/16/14 17/17/15 18/18/16
s 7
f 19/19/17 20/20/18 21/21/19
s 8
f 22/22/20 6/23/21 23/24/22
s 9
f 24/25/23 25/26/24 26/27/25
s 2
f 27/28/4 28/29/4 4/4/4
s 10
f 29/30/26 30/31/27 31/32/28
s 11
f 8/8/29 32/33/30 33/34/31
s 12
f 34/35/32 35/36/33 16/16/34
s 13
f 36/37/35 37/38/35 9/9/35
s 14
f 32/33/36 38/39/37 39/40/38
s 15
f 40/41/39 21/21/40 41/42/41
s 4
f 42/43/42 12/12/10 43/44/43
s 16
f 44/45/44 33/34/44 45/46/44
s 11
f 46/47/45 32/33/30 47/48/46
s 17
f 21/21/47 48/49/48 49/50/49
s 13
f 9/9/35 50/51/35 7/7/35
s 18
f 51/52/50 41/42/51 1/1/52
s 19
f 15/15/53 18/18/54 19/19/54
s 2
f 12/53/4 52/54/4 53/55/4
s 13
f 54/56/35 55/57/35 56/58/35
s 20
f 57/59/55 52/60/56 35/36/57
s 21
f 30/31/58 53/61/59 57/59/60
s 7
f 20/20/18 42/43/61 48/49/62
s 22
f 58/62/63 59/63/63 30/31/63
s 23
f 60/64/64 61/65/65 24/25/66
s 24
f 46/47/67 24/25/68 62/66/69
s 25
f 44/45/70 55/57/71 36/37/72
s 26
f 45/46/73 63/67/73 29/30/73
s 27
f 31/32/74 57/59/75 34/35/76
s 1
f 64/68/77 65/69/78 66/70/79
s 2
f 43/71/4 53/55/4 59/72/4
s 13
f 67/73/35 13/13/35 51/52/35
f 64/68/35 68/74/35 69/75/35
s 2
f 6/6/4 70/76/4 71/77/4
s 28
f 42/43/80 27/78/81 72/79/81
s 1
f 73/80/3 74/81/82 65/69/78
s 29
f 75/82/83 16/16/84 76/83/85
s 30
f 77/84/86 75/82/87 14/14/88
s 1
f 78/85/3 2/2/2 74/81/82
s 13
f 78/85/35 79/86/35 3/3/35
s 28
f 72/79/81 4/87/80 22/22/80
s 31
f 80/88/89 72/79/90 22/22/89
s 1
f 65/69/78 81/89/91 82/90/91
s 32
f 9/9/72 44/45/72 36/37/72
s 9
f 26/27/25 23/24/92 83/91/93
s 2
f 27/28/4 59/72/4 84/92/4
s 33
f 38/39/94 83/91/95 85/93/96
s 34
f 68/74/97 66/70/98 60/64/99
s 35
f 29/30/100 86/94/100 58/62/100
s 24
f 68/74/101 46/47/67 87/95/102
s 36
f 58/62/103 28/96/103 84/97/103
s 1
f 82/90/91 88/98/91 80/88/91
s 19
f 19/19/54 40/41/54 15/15/53
s 13
f 89/99/35 36/37/35 55/57/35
s 15
f 41/42/41 49/50/104 2/2/105
s 13
f 69/75/35 68/74/35 87/95/35
s 37
f 66/70/106 82/90/107 61/65/108
s 9
f 25/26/24 22/22/109 23/24/92
s 13
f 90/100/35 78/85/35 73/80/35
s 38
f 51/52/110 15/15/111 40/41/112
s 39
f 14/14/113 76/83/114 15/15/115
s 40
f 86/94/116 5/101/117 28/96/118
s 41
f 85/93/119 71/102/120 70/103/119
s 42
f 61/65/121 80/88/122 25/26/123
s 29
f 91/104/124 34/35/125 75/82/83
s 3
f 87/95/126 47/48/127 7/7/5
s 7
f 18/18/128 10/10/129 20/20/18
s 13
f 92/105/35 51/52/35 1/1/35
s 40
f 93/106/130 70/103/131 5/101/117
s 43
f 63/67/132 93/106/133 86/94/134
s 44
f 39/40/135 85/93/136 93/106/137
s 24
f 26/27/68 38/39/138 62/66/69
s 1
f 81/89/91 48/49/91 88/98/91
f 74/81/82 49/50/91 81/89/91
s 45
f 44/45/139 91/104/140 77/84/141
s 13
f 67/73/35 51/52/35 92/105/35
f 64/68/35 69/75/35 94/107/35
f 69/75/35 87/95/35 95/108/35
f 92/105/35 1/1/35 96/109/35
s 24
f 26/27/68 62/66/69 24/25/68
s 19
f 18/18/54 76/83/142 16/16/143
s 46
f 45/46/144 31/32/145 91/104/146
s 47
f 35/36/147 11/11/148 17/17/149
s 8
f 23/24/22 71/102/150 83/91/151
s 13
f 7/7/35 95/108/35 87/95/35
s 25
f 56/58/152 77/84/153 14/14/154
s 13
f 3/3/35 96/109/35 1/1/35
f 94/107/35 73/80/35 64/68/35
f 54/56/35 13/13/35 67/73/35
s 48
f 33/34/155 39/40/156 63/67/157
s 31
f 88/98/158 42/43/158 72/79/90
s 1
f 1/1/1 41/42/159 2/2/2
s 2
f 4/4/4 28/29/4 5/5/4
s 3
f 7/7/5 47/48/127 8/8/6
s 4
f 10/10/8 17/17/160 11/11/9
s 5
f 13/13/11 56/58/161 14/14/12
s 6
f 16/16/14 35/36/14 17/17/15
s 7
f 19/19/17 18/18/128 20/20/18
s 8
f 22/22/20 4/87/162 6/23/21
s 9
f 24/25/23 61/65/108 25/26/24
s 2
f 27/28/4 84/92/4 28/29/4
s 10
f 29/30/26 58/62/163 30/31/27
s 11
f 8/8/29 47/48/46 32/33/30
s 12
f 34/35/32 57/59/164 35/36/33
s 13
f 36/37/35 97/110/35 37/38/35
s 14
f 32/33/36 62/66/165 38/39/37
s 15
f 40/41/39 19/19/166 21/21/40
s 4
f 42/43/42 10/10/8 12/12/10
s 16
f 44/45/44 8/8/44 33/34/44
s 11
f 46/47/45 62/66/167 32/33/30
s 17
f 21/21/47 20/20/168 48/49/48
s 13
f 9/9/35 37/38/35 50/51/35
s 18
f 51/52/50 40/41/169 41/42/51
s 19
f 15/15/53 76/83/142 18/18/54
s 2
f 12/53/4 11/111/4 52/54/4
s 13
f 54/56/35 89/99/35 55/57/35
s 20
f 57/59/55 53/61/170 52/60/56
s 21
f 30/31/58 59/63/171 53/61/59
s 7
f 20/20/18 10/10/129 42/43/61
s 22
f 58/62/63 84/97/63 59/63/63
s 23
f 60/64/64 66/70/172 61/65/65
s 24
f 46/47/67 60/64/173 24/25/68
s 25
f 44/45/70 77/84/153 55/57/71
s 26
f 45/46/73 33/34/73 63/67/73
s 27
f 31/32/74 30/31/174 57/59/75
s 1
f 64/68/77 73/80/3 65/69/78
s 2
f 43/71/4 12/53/4 53/55/4
f 6/6/4 5/5/4 70/76/4
s 28
f 42/43/80 43/44/80 27/78/81
s 1
f 73/80/3 78/85/3 74/81/82
s 29
f 75/82/83 34/35/125 16/16/84
s 30
f 77/84/86 91/104/175 75/82/87
s 1
f 78/85/3 3/3/3 2/2/2
s 13
f 78/85/35 98/112/35 79/86/35
s 28
f 72/79/81 27/78/81 4/87/80
s 31
f 80/88/89 88/98/158 72/79/90
s 1
f 65/69/78 74/81/82 81/89/91
s 32
f 9/9/72 8/8/72 44/45/72
s 9
f 26/27/25 25/26/24 23/24/92
s 2
f 27/28/4 43/71/4 59/72/4
s 33
f 38/39/94 26/27/95 83/91/95
s 34
f 68/74/97 64/68/176 66/70/98
s 35
f 29/30/100 63/67/100 86/94/100
s 24
f 68/74/101 60/64/173 46/47/67
s 36
f 58/62/103 86/94/103 28/96/103
s 1
f 82/90/91 81/89/91 88/98/91
s 13
f 89/99/35 97/110/35 36/37/35
s 15
f 41/42/41 21/21/40 49/50/104
s 37
f 66/70/106 65/69/177 82/90/107
s 9
f 25/26/24 80/88/178 22/22/109
s 13
f 90/100/35 98/112/35 78/85/35
s 38
f 51/52/110 13/13/111 15/15/111
s 39
f 14/14/113 75/82/179 76/83/114
s 40
f 86/94/116 93/106/130 5/101/117
s 41
f 85/93/119 83/91/120 71/102/120
s 42
f 61/65/121 82/90/180 80/88/122
s 29
f 91/104/124 31/32/181 34/35/125
s 3
f 87/95/126 46/47/182 47/48/127
s 7
f 18/18/128 17/17/183 10/10/129
s 40
f 93/106/130 85/93/184 70/103/131
s 43
f 63/67/132 39/40/185 93/106/133
s 44
f 39/40/135 38/39/186 85/93/136
s 1
f 81/89/91 49/50/91 48/49/91
f 74/81/82 2/2/2 49/50/91
s 45
f 44/45/139 45/46/187 91/104/140
s 46
f 45/46/144 29/30/188 31/32/145
s 47
f 35/36/147 52/60/189 11/11/148
s 8
f 23/24/22 6/23/21 71/102/150
s 13
f 7/7/35 50/51/35 95/108/35
s 25
f 56/58/152 55/57/71 77/84/153
s 13
f 3/3/35 79/86/35 96/109/35
f 94/107/35 90/100/35 73/80/35
f 54/56/35 56/58/35 13/13/35
s 48
f 33/34/155 32/33/190 39/40/156
s 31
f 88/98/158 48/49/158 42/43/158
