# Blender v2.82 (sub 7) OBJ File: 'PPSH.blend'
# www.blender.org
mtllib slide.mtl
o Bolt_Cube.009
v 0.385844 0.459979 -3.561362
v 0.385844 0.240167 -3.561362
v 0.406834 0.459979 -3.496760
v 0.406834 0.240167 -3.496760
v 0.461787 0.459979 -3.456835
v 0.461787 0.240167 -3.456835
v 0.529713 0.459979 -3.456835
v 0.529713 0.240167 -3.456835
v 0.584666 0.459979 -3.496760
v 0.584666 0.240167 -3.496760
v 0.605656 0.459979 -3.561362
v 0.605656 0.240167 -3.561362
v 0.584666 0.459979 -3.625963
v 0.584666 0.240167 -3.625963
v 0.529713 0.459979 -3.665889
v 0.529713 0.240167 -3.665889
v 0.461787 0.459979 -3.665889
v 0.461787 0.240167 -3.665889
v 0.406834 0.459979 -3.625963
v 0.406834 0.240167 -3.625963
v 0.346918 0.519304 -3.561362
v 0.375342 0.519304 -3.473880
v 0.449758 0.519304 -3.419814
v 0.541742 0.519304 -3.419814
v 0.616158 0.519304 -3.473880
v 0.644582 0.519304 -3.561362
v 0.616158 0.519304 -3.648843
v 0.541742 0.519304 -3.702910
v 0.449758 0.519304 -3.702910
v 0.375342 0.519304 -3.648843
v 0.346918 0.836139 -3.561362
v 0.375342 0.836139 -3.473880
v 0.449758 0.836139 -3.419814
v 0.541742 0.836139 -3.419814
v 0.616158 0.836139 -3.473880
v 0.644582 0.836139 -3.561362
v 0.616158 0.836139 -3.648843
v 0.541742 0.836139 -3.702910
v 0.449758 0.836139 -3.702910
v 0.375342 0.836139 -3.648843
v 0.372589 0.883555 -3.561362
v 0.346918 0.859140 -3.561362
v 0.375342 0.859140 -3.473880
v 0.396111 0.883555 -3.488970
v 0.449758 0.859140 -3.419814
v 0.457691 0.883555 -3.444229
v 0.541742 0.859140 -3.419814
v 0.533809 0.883555 -3.444229
v 0.616158 0.859140 -3.473880
v 0.595389 0.883555 -3.488970
v 0.644582 0.859140 -3.561362
v 0.618911 0.883555 -3.561362
v 0.616158 0.859140 -3.648843
v 0.595389 0.883555 -3.633754
v 0.541742 0.859140 -3.702910
v 0.533809 0.883555 -3.678494
v 0.449758 0.859140 -3.702910
v 0.457691 0.883555 -3.678494
v 0.375342 0.859140 -3.648843
v 0.396111 0.883555 -3.633754
vt 0.533071 0.485974
vt 0.533071 0.429044
vt 0.556621 0.429044
vt 0.556621 0.485974
vt 0.575674 0.427622
vt 0.575674 0.484551
vt 0.517982 0.533742
vt 0.517982 0.590672
vt 0.498930 0.589249
vt 0.498930 0.532320
vt 0.475380 0.589249
vt 0.475380 0.532320
vt 0.456327 0.590672
vt 0.456327 0.533742
vt 0.434491 0.533742
vt 0.434491 0.590672
vt 0.415438 0.589249
vt 0.415438 0.532320
vt 0.391888 0.589249
vt 0.391888 0.532320
vt 0.372836 0.590672
vt 0.372836 0.533742
vt 0.496308 0.590672
vt 0.518705 0.596159
vt 0.532547 0.610526
vt 0.532547 0.628284
vt 0.518705 0.642650
vt 0.496308 0.648138
vt 0.473910 0.642650
vt 0.460068 0.628284
vt 0.460068 0.610526
vt 0.473910 0.596159
vt 0.590763 0.485974
vt 0.590763 0.429044
vt 0.614313 0.429044
vt 0.614313 0.485974
vt 0.633365 0.427622
vt 0.633365 0.484551
vt 0.618483 0.502657
vt 0.586592 0.502657
vt 0.528901 0.517563
vt 0.503100 0.515636
vt 0.503100 0.433579
vt 0.528901 0.435505
vt 0.361917 0.517563
vt 0.387718 0.515636
vt 0.419609 0.515636
vt 0.445409 0.517563
vt 0.471209 0.515636
vt 0.560792 0.502657
vt 0.528901 0.502657
vt 0.586592 0.500731
vt 0.644284 0.500731
vt 0.560792 0.584715
vt 0.586592 0.582788
vt 0.586592 0.588745
vt 0.560792 0.590672
vt 0.644284 0.582788
vt 0.618483 0.584715
vt 0.387718 0.433579
vt 0.419609 0.433579
vt 0.471209 0.433579
vt 0.528901 0.584715
vt 0.361917 0.435505
vt 0.445409 0.435505
vt 0.586592 0.584715
vt 0.644284 0.588745
vt 0.618483 0.590672
vt 0.361917 0.429548
vt 0.387718 0.427622
vt 0.445409 0.429548
vt 0.471209 0.427622
vt 0.370382 0.619632
vt 0.385894 0.603532
vt 0.410992 0.597383
vt 0.436091 0.603532
vt 0.451603 0.619631
vt 0.451603 0.639531
vt 0.436091 0.655630
vt 0.410992 0.661779
vt 0.385894 0.655630
vt 0.370382 0.639531
vt 0.586592 0.590672
vt 0.419609 0.427622
vt 0.503100 0.427622
vt 0.528901 0.429548
vt 0.361917 0.617558
vt 0.380662 0.598103
vt 0.410992 0.590672
vt 0.441323 0.598103
vt 0.460068 0.617558
vt 0.460068 0.641605
vt 0.441323 0.661060
vt 0.410992 0.668491
vt 0.380662 0.661060
vt 0.361917 0.641605
vt 0.528901 0.590672
vn -0.9511 -0.0000 0.3090
vn -0.5878 -0.0000 0.8090
vn 0.0000 0.0000 1.0000
vn 0.5878 0.0000 0.8090
vn 0.9511 0.0000 0.3090
vn 0.9511 0.0000 -0.3090
vn 0.5878 0.0000 -0.8090
vn 0.0000 0.0000 -1.0000
vn 0.0000 -1.0000 -0.0000
vn -0.5878 -0.0000 -0.8090
vn -0.9511 -0.0000 -0.3090
vn -0.4987 -0.5294 -0.6863
vn 0.0000 -0.5294 -0.8484
vn 0.4987 -0.5294 -0.6863
vn 0.8068 -0.5294 -0.2622
vn 0.8068 -0.5294 0.2622
vn 0.4987 -0.5294 0.6863
vn -0.8068 -0.5294 0.2622
vn 0.0000 -0.5294 0.8484
vn -0.4987 -0.5294 0.6863
vn -0.8068 -0.5294 -0.2622
vn 0.0000 1.0000 -0.0000
vn -0.6725 0.7071 0.2185
vn -0.4156 0.7071 0.5721
vn 0.0000 0.7071 0.7071
vn 0.4156 0.7071 0.5721
vn 0.6725 0.7071 0.2185
vn 0.6725 0.7071 -0.2185
vn 0.4156 0.7071 -0.5721
vn 0.0000 0.7071 -0.7071
vn -0.4156 0.7071 -0.5721
vn -0.6725 0.7071 -0.2185
usemtl Gris_F
s off
f 1/1/1 2/2/1 4/3/1 3/4/1
f 3/4/2 4/3/2 6/5/2 5/6/2
f 5/7/3 6/8/3 8/9/3 7/10/3
f 7/10/4 8/9/4 10/11/4 9/12/4
f 9/12/5 10/11/5 12/13/5 11/14/5
f 11/15/6 12/16/6 14/17/6 13/18/6
f 13/18/7 14/17/7 16/19/7 15/20/7
f 15/20/8 16/19/8 18/21/8 17/22/8
f 4/23/9 2/24/9 20/25/9 18/26/9 16/27/9 14/28/9 12/29/9 10/30/9 8/31/9 6/32/9
f 17/33/10 18/34/10 20/35/10 19/36/10
f 19/36/11 20/35/11 2/37/11 1/38/11
f 17/33/12 19/36/12 30/39/12 29/40/12
f 23/41/3 24/42/3 34/43/3 33/44/3
f 15/20/13 17/22/13 29/45/13 28/46/13
f 13/18/14 15/20/14 28/46/14 27/47/14
f 11/15/15 13/18/15 27/47/15 26/48/15
f 9/12/16 11/14/16 26/48/16 25/49/16
f 7/10/17 9/12/17 25/49/17 24/42/17
f 1/1/18 3/4/18 22/50/18 21/51/18
f 5/7/19 7/10/19 24/42/19 23/41/19
f 3/4/20 5/6/20 23/52/20 22/50/20
f 19/36/21 1/38/21 21/53/21 30/39/21
f 32/54/2 33/55/2 45/56/2 43/57/2
f 30/39/11 21/53/11 31/58/11 40/59/11
f 27/47/7 28/46/7 38/60/7 37/61/7
f 24/42/4 25/49/4 35/62/4 34/43/4
f 21/51/1 22/50/1 32/54/1 31/63/1
f 28/46/8 29/45/8 39/64/8 38/60/8
f 25/49/5 26/48/5 36/65/5 35/62/5
f 22/50/2 23/52/2 33/55/2 32/54/2
f 29/40/10 30/39/10 40/59/10 39/66/10
f 26/48/6 27/47/6 37/61/6 36/65/6
f 40/59/11 31/58/11 42/67/11 59/68/11
f 38/60/8 39/64/8 57/69/8 55/70/8
f 35/62/5 36/65/5 51/71/5 49/72/5
f 41/73/22 44/74/22 46/75/22 48/76/22 50/77/22 52/78/22 54/79/22 56/80/22 58/81/22 60/82/22
f 39/66/10 40/59/10 59/68/10 57/83/10
f 36/65/6 37/61/6 53/84/6 51/71/6
f 33/44/3 34/43/3 47/85/3 45/86/3
f 37/61/7 38/60/7 55/70/7 53/84/7
f 34/43/4 35/62/4 49/72/4 47/85/4
f 42/87/23 43/88/23 44/74/23 41/73/23
f 43/88/24 45/89/24 46/75/24 44/74/24
f 45/89/25 47/90/25 48/76/25 46/75/25
f 47/90/26 49/91/26 50/77/26 48/76/26
f 49/91/27 51/92/27 52/78/27 50/77/27
f 51/92/28 53/93/28 54/79/28 52/78/28
f 53/93/29 55/94/29 56/80/29 54/79/29
f 55/94/30 57/95/30 58/81/30 56/80/30
f 57/95/31 59/96/31 60/82/31 58/81/31
f 59/96/32 42/87/32 41/73/32 60/82/32
f 31/63/1 32/54/1 43/57/1 42/97/1
