# Blender v2.82 (sub 7) OBJ File: ''
# www.blender.org
mtllib slide.mtl
o Bolt_Cube.009
v 4.034153 -0.742145 -3.736228
v 4.034153 -1.184425 -3.736228
v 3.997091 -1.184425 -3.622164
v 3.997091 -0.742145 -3.622164
v 4.131179 -0.742145 -3.437607
v 4.131179 -1.184425 -3.437607
v 4.251113 -1.184425 -3.437607
v 4.251113 -0.742145 -3.437607
v 4.348140 -1.184425 -3.508102
v 4.348140 -0.742145 -3.508102
v 4.385201 -1.184425 -3.622164
v 4.385201 -0.742145 -3.622164
v 4.348140 -1.184425 -3.736228
v 4.348140 -0.742145 -3.736228
v 4.251113 -1.184425 -3.806723
v 4.251113 -0.742145 -3.806723
v 4.131179 -1.184425 -3.806723
v 4.131179 -0.742145 -3.806723
v 4.034153 -1.184425 -3.508102
v 4.034153 -0.742145 -3.508102
v 4.084190 -0.713789 -3.544457
v 4.150292 -0.713789 -3.496429
v 4.150292 -0.429175 -3.496429
v 4.084190 -0.429175 -3.544457
v 4.232001 -0.713789 -3.747899
v 4.298102 -0.713789 -3.699872
v 4.046114 -1.215877 -3.622164
v 4.073813 -1.215877 -3.536917
v 4.146330 -1.215877 -3.484230
v 4.235963 -1.215877 -3.484233
v 4.308480 -1.215877 -3.536917
v 4.336176 -1.215877 -3.622164
v 4.308480 -1.215877 -3.707411
v 4.235963 -1.215877 -3.760098
v 4.146330 -1.215877 -3.760098
v 4.073813 -1.215877 -3.707411
v 4.323351 -0.713789 -3.622164
v 4.298102 -0.713789 -3.544457
v 4.232001 -0.713789 -3.496429
v 4.058942 -0.713789 -3.622164
v 4.084190 -0.713789 -3.699872
v 4.150292 -0.713789 -3.747899
v 4.058942 -0.429175 -3.622164
v 4.232000 -0.429175 -3.496429
v 4.298102 -0.429175 -3.544457
v 4.323351 -0.429175 -3.622164
v 4.298102 -0.429175 -3.699872
v 4.232001 -0.429175 -3.747899
v 4.150292 -0.429175 -3.747899
v 4.084190 -0.429175 -3.699872
vt 0.902017 0.812556
vt 0.902017 0.915262
vt 0.873033 0.915262
vt 0.873033 0.812556
vt 0.773702 0.812556
vt 0.773702 0.915262
vt 0.750253 0.915262
vt 0.750253 0.812556
vt 0.721269 0.915262
vt 0.721269 0.812556
vt 0.697820 0.915262
vt 0.697820 0.812556
vt 0.849584 0.812556
vt 0.849584 0.915262
vt 0.826135 0.915262
vt 0.826135 0.812556
vt 0.797151 0.915262
vt 0.797151 0.812556
vt 0.773702 0.915262
vt 0.773702 0.812556
vt 0.925466 0.812556
vt 0.925466 0.915262
vt 0.849584 0.915262
vt 0.849584 0.812556
vt 0.937002 0.722428
vt 0.956748 0.722428
vt 0.956748 0.788521
vt 0.937002 0.788521
vt 0.925466 0.915262
vt 0.925466 0.812556
vt 0.954450 0.812556
vt 0.954450 0.915262
vt 0.859193 0.803949
vt 0.831627 0.812556
vt 0.831627 0.798193
vt 0.850407 0.792329
vt 0.769988 0.803949
vt 0.742422 0.812556
vt 0.742422 0.801171
vt 0.763024 0.794739
vt 0.787025 0.781417
vt 0.775757 0.777899
vt 0.787025 0.753566
vt 0.775757 0.757084
vt 0.769988 0.731034
vt 0.763024 0.740245
vt 0.742422 0.722428
vt 0.742422 0.733812
vt 0.714857 0.731034
vt 0.721821 0.740245
vt 0.697820 0.753566
vt 0.709088 0.757084
vt 0.697820 0.781417
vt 0.709088 0.777899
vt 0.714857 0.803949
vt 0.721821 0.794739
vt 0.876229 0.781417
vt 0.862013 0.776979
vt 0.876229 0.753566
vt 0.862013 0.758005
vt 0.859193 0.731034
vt 0.850407 0.742654
vt 0.787025 0.753566
vt 0.804061 0.731034
vt 0.812847 0.742654
vt 0.801241 0.758005
vt 0.831627 0.722428
vt 0.831627 0.736791
vt 0.787025 0.781417
vt 0.801241 0.776979
vt 0.804061 0.803949
vt 0.812847 0.792329
vt 0.906616 0.783829
vt 0.887836 0.777966
vt 0.876229 0.762616
vt 0.876229 0.743642
vt 0.887836 0.728291
vt 0.906616 0.722428
vt 0.925395 0.728291
vt 0.937002 0.743642
vt 0.937002 0.762616
vt 0.925395 0.777966
vt 0.713795 0.915262
vt 0.733541 0.915262
vt 0.733541 0.981356
vt 0.713795 0.981356
vt 0.749516 0.915262
vt 0.765491 0.915262
vt 0.765491 0.981356
vt 0.749516 0.981356
vt 0.836934 0.915262
vt 0.852909 0.915262
vt 0.852909 0.981356
vt 0.836934 0.981356
vt 0.785238 0.915262
vt 0.801213 0.915262
vt 0.801213 0.981356
vt 0.785238 0.981356
vt 0.697820 0.915262
vt 0.697820 0.981356
vt 0.817188 0.915262
vt 0.817188 0.981356
vn -0.9511 0.0000 -0.3090
vn -0.0000 0.0000 1.0000
vn 0.5878 0.0000 0.8090
vn 0.9511 0.0000 0.3090
vn 0.9511 0.0000 -0.3090
vn 0.5878 0.0000 -0.8090
vn -0.0000 0.0000 -1.0000
vn -0.5878 0.0000 -0.8090
vn -0.9511 0.0000 0.3090
vn -0.5878 0.0000 0.8090
vn 0.2552 0.9008 -0.3513
vn -0.5319 -0.8290 0.1728
vn -0.3287 -0.8290 0.4524
vn 0.0000 -0.8290 0.5592
vn 0.3287 -0.8290 0.4524
vn 0.5319 -0.8290 0.1728
vn 0.5319 -0.8290 -0.1728
vn 0.3287 -0.8290 -0.4524
vn 0.0000 -0.8290 -0.5592
vn -0.3287 -0.8290 -0.4524
vn -0.5319 -0.8290 -0.1728
vn 0.0000 -1.0000 0.0000
vn 0.4130 0.9008 -0.1342
vn 0.4130 0.9008 0.1342
vn 0.2552 0.9008 0.3513
vn -0.4130 0.9008 0.1342
vn 0.0000 0.9008 0.4342
vn -0.2552 0.9008 0.3513
vn -0.4130 0.9008 -0.1342
vn -0.2552 0.9008 -0.3513
vn 0.0000 0.9008 -0.4342
vn 0.0000 1.0000 0.0000
usemtl 3.001
s 1
f 1/1/1 2/2/1 3/3/1 4/4/1
f 5/5/2 6/6/2 7/7/2 8/8/2
f 8/8/3 7/7/3 9/9/3 10/10/3
f 10/10/4 9/9/4 11/11/4 12/12/4
f 12/13/5 11/14/5 13/15/5 14/16/5
f 14/16/6 13/15/6 15/17/6 16/18/6
f 16/18/7 15/17/7 17/19/7 18/20/7
f 18/21/8 17/22/8 2/2/8 1/1/8
f 4/4/9 3/3/9 19/23/9 20/24/9
f 21/25/10 22/26/10 23/27/10 24/28/10
f 20/29/10 19/30/10 6/31/10 5/32/10
f 14/33/11 16/34/11 25/35/11 26/36/11
f 19/37/12 3/38/12 27/39/12 28/40/12
f 6/41/13 19/37/13 28/40/13 29/42/13
f 7/43/14 6/41/14 29/42/14 30/44/14
f 9/45/15 7/43/15 30/44/15 31/46/15
f 11/47/16 9/45/16 31/46/16 32/48/16
f 13/49/17 11/47/17 32/48/17 33/50/17
f 15/51/18 13/49/18 33/50/18 34/52/18
f 17/53/19 15/51/19 34/52/19 35/54/19
f 2/55/20 17/53/20 35/54/20 36/56/20
f 3/38/21 2/55/21 36/56/21 27/39/21
f 28/40/22 27/39/22 36/56/22 35/54/22 34/52/22 33/50/22 32/48/22 31/46/22 30/44/22 29/42/22
f 12/57/23 14/33/23 26/36/23 37/58/23
f 10/59/24 12/57/24 37/58/24 38/60/24
f 8/61/25 10/59/25 38/60/25 39/62/25
f 4/63/26 20/64/26 21/65/26 40/66/26
f 5/67/27 8/61/27 39/62/27 22/68/27
f 20/64/28 5/67/28 22/68/28 21/65/28
f 1/69/29 4/63/29 40/66/29 41/70/29
f 18/71/30 1/69/30 41/70/30 42/72/30
f 16/34/31 18/71/31 42/72/31 25/35/31
f 43/73/32 24/74/32 23/75/32 44/76/32 45/77/32 46/78/32 47/79/32 48/80/32 49/81/32 50/82/32
f 39/83/3 38/84/3 45/85/3 44/86/3
f 37/87/5 26/88/5 47/89/5 46/90/5
f 40/91/9 21/92/9 24/93/9 43/94/9
f 25/95/7 42/96/7 49/97/7 48/98/7
f 22/99/2 39/83/2 44/86/2 23/100/2
f 41/101/1 40/91/1 43/94/1 50/102/1
f 38/84/4 37/87/4 46/90/4 45/85/4
f 26/88/6 25/95/6 48/98/6 47/89/6
f 42/96/8 41/101/8 50/102/8 49/97/8
