# Blender v2.82 (sub 7) OBJ File: ''
# www.blender.org
mtllib slide.mtl
o Bolt_Cube.005
v -0.801253 -0.236142 -4.170157
v -0.801253 0.116125 -4.170157
v 1.328205 0.116125 -4.207264
v 1.328205 -0.236142 -4.207264
v -0.789744 -0.236142 -3.509657
v 1.339714 -0.236142 -3.546763
v 1.332177 0.360016 -3.979311
v 1.336529 0.360016 -3.729531
v 1.338705 0.279665 -3.604694
v 1.338704 0.279652 -3.604703
v 1.332318 0.279652 -3.971180
v 1.339714 0.177221 -3.546763
v 1.338704 -0.149713 -3.604703
v -0.800315 -0.149713 -4.116283
v -0.800315 0.103996 -4.116283
v -0.797281 0.360016 -3.942204
v 1.329143 0.103996 -4.153390
v -0.790753 0.279652 -3.567596
v -0.797140 0.279652 -3.934073
v -0.790753 -0.149713 -3.567596
v 1.329143 -0.149713 -4.153390
v -0.790753 0.279664 -3.567588
v -0.792929 0.360016 -3.692425
v -0.789744 0.177221 -3.509657
vt 0.861605 0.889295
vt 0.839451 0.889295
vt 0.839451 0.702886
vt 0.861605 0.702886
vt 0.786620 0.889295
vt 0.745074 0.889295
vt 0.745074 0.702886
vt 0.786620 0.702886
vt 0.782567 0.927159
vt 0.782567 0.905294
vt 0.787620 0.894366
vt 0.787621 0.894367
vt 0.787621 0.926447
vt 0.794063 0.889295
vt 0.820060 0.889295
vt 0.814624 0.894367
vt 0.767228 0.947114
vt 0.745074 0.947114
vt 0.750509 0.942398
vt 0.766465 0.942398
vt 0.824112 0.889295
vt 0.824112 0.702886
vt 0.797905 0.947114
vt 0.798668 0.942398
vt 0.896118 0.702886
vt 0.896118 0.889295
vt 0.873067 0.889295
vt 0.873066 0.702886
vt 0.957634 0.889295
vt 0.930631 0.889295
vt 0.930631 0.702886
vt 0.957634 0.702886
vt 0.820060 0.947114
vt 0.814624 0.942398
vt 0.777513 0.894366
vt 0.782567 0.905294
vt 0.782567 0.927159
vt 0.777513 0.926447
vt 0.777513 0.894367
vt 0.745074 0.889295
vt 0.771071 0.889295
vt 0.750509 0.894367
vt 0.989301 0.889295
vt 0.973590 0.889295
vt 0.973590 0.702886
vt 0.989301 0.702886
vt 0.861605 0.889295
vt 0.861605 0.702886
vt 0.957634 0.889295
vt 0.957634 0.702886
vt 0.973590 0.702886
vt 0.973590 0.889295
vt 0.930631 0.702886
vt 0.930631 0.889295
vt 0.896118 0.889295
vt 0.896118 0.702886
vt 0.824018 0.889295
vt 0.824018 0.911921
vt 0.822039 0.901995
vt 0.822039 0.889295
vt 0.822039 0.911921
vt 0.820060 0.899221
vt 0.798116 0.702886
vt 0.798116 0.889295
vt 0.786620 0.889295
vt 0.786620 0.702886
vt 0.824112 0.702886
vt 0.824112 0.889295
vn -0.0174 -0.0000 -0.9998
vn 0.0000 -1.0000 -0.0000
vn 0.9998 0.0000 -0.0174
vn -0.9998 0.0000 0.0174
vn -0.0127 0.6829 -0.7304
vn -0.0000 1.0000 0.0000
vn 0.0121 -0.7200 0.6939
vn 0.0174 0.0000 0.9998
vn 0.0123 0.7071 0.7070
usemtl 2.001
s 1
f 1/1/1 2/2/1 3/3/1 4/4/1
f 5/5/2 1/6/2 4/7/2 6/8/2
f 7/9/3 8/10/3 9/11/3 10/12/3 11/13/3
f 9/11/3 12/14/3 6/15/3 13/16/3 10/12/3
f 2/17/4 1/18/4 14/19/4 15/20/4
f 3/3/5 2/2/5 16/21/5 7/22/5
f 3/23/3 7/9/3 11/13/3 17/24/3
f 10/25/2 18/26/2 19/27/2 11/28/2
f 20/29/1 18/30/1 10/31/1 13/32/1
f 4/33/3 3/23/3 17/24/3 21/34/3
f 22/35/4 23/36/4 16/37/4 19/38/4 18/39/4
f 6/15/3 4/33/3 21/34/3 13/16/3
f 5/40/4 24/41/4 22/35/4 18/39/4 20/42/4
f 1/18/4 5/40/4 20/42/4 14/19/4
f 16/37/4 2/17/4 15/20/4 19/38/4
f 8/43/6 7/44/6 16/45/6 23/46/6
f 11/28/7 19/27/7 15/47/7 17/48/7
f 17/49/8 15/50/8 14/51/8 21/52/8
f 20/53/6 13/54/6 21/55/6 14/56/6
f 8/57/4 12/58/4 9/59/4
f 24/60/3 23/61/3 22/62/3
f 24/63/9 12/64/9 8/65/9 23/66/9
f 24/63/8 5/67/8 6/68/8 12/64/8
