# Blender v2.82 (sub 7) OBJ File: ''
# www.blender.org
mtllib slide.mtl
o Bolt_Cube.003
v 1.240562 0.329395 -3.269012
v 1.240562 0.329395 -3.578233
v 1.240562 0.329395 -3.544648
v 1.240562 0.329395 -3.302601
v 1.039346 0.329395 -3.544648
v 0.974461 0.329395 -3.493856
v 0.974460 0.789601 -3.493856
v 1.039346 0.789601 -3.544648
v 1.100901 0.329395 -3.544648
v 1.100901 0.789601 -3.544648
v 1.100900 0.789601 -3.302601
v 1.240562 0.789601 -3.302601
v 1.240562 0.789601 -3.544648
v 0.974460 0.789601 -3.353389
v 1.039346 0.789601 -3.302601
v 1.100901 0.329395 -3.302601
v 0.974461 0.329395 -3.353389
v 1.039346 0.329395 -3.302601
v 1.240562 0.205649 -3.578233
v 0.931343 0.205649 -3.578234
v 0.931343 0.329395 -3.578234
v 0.931343 0.205649 -3.269013
v 0.931343 0.329395 -3.269013
v 0.869783 0.329395 -3.269013
v 0.869783 0.205649 -3.269013
v 1.240562 0.205649 -3.269012
v 0.869783 0.329395 -3.578234
v 0.804898 0.329395 -3.513348
v 0.804898 0.205649 -3.513348
v 0.804898 0.205649 -3.333903
v 0.804898 0.329395 -3.333903
v 0.869783 0.205649 -3.578234
vt 0.406103 0.406103
vt 0.406103 0.406103
vt 0.406103 0.406103
vt 0.406103 0.406103
vt 0.751311 0.388909
vt 0.765343 0.388909
vt 0.765344 0.490935
vt 0.751311 0.490935
vt 0.737999 0.388909
vt 0.738000 0.490935
vt 0.532820 0.506523
vt 0.573235 0.506523
vt 0.573235 0.530429
vt 0.532820 0.530429
vt 0.532820 0.495986
vt 0.541301 0.484879
vt 0.564754 0.484879
vt 0.573235 0.495986
vt 0.601401 0.485494
vt 0.631603 0.485494
vt 0.631603 0.587520
vt 0.601401 0.587520
vt 0.707798 0.388909
vt 0.707798 0.490935
vt 0.707798 0.490935
vt 0.738174 0.490935
vt 0.738174 0.592960
vt 0.707798 0.592960
vt 0.574057 0.485494
vt 0.588090 0.485494
vt 0.588090 0.587520
vt 0.574057 0.587520
vt 0.683947 0.485494
vt 0.683947 0.587520
vt 0.392658 0.490634
vt 0.358061 0.490634
vt 0.358061 0.404494
vt 0.392658 0.404494
vt 0.392658 0.507782
vt 0.358061 0.507782
vt 0.358061 0.490634
vt 0.392658 0.490634
vt 0.392658 0.593922
vt 0.358061 0.593922
vt 0.254348 0.594851
vt 0.219751 0.594851
vt 0.219751 0.508710
vt 0.254348 0.508710
vt 0.358061 0.473487
vt 0.271608 0.473487
vt 0.271608 0.387346
vt 0.358061 0.387346
vt 0.185154 0.405422
vt 0.203296 0.387346
vt 0.208745 0.434581
vt 0.194544 0.452657
vt 0.219751 0.576775
vt 0.185154 0.576775
vt 0.185154 0.526786
vt 0.219751 0.526786
vt 0.358061 0.490634
vt 0.339920 0.508710
vt 0.289750 0.508710
vt 0.271608 0.490634
vt 0.219751 0.594851
vt 0.185154 0.594851
vt 0.185154 0.508710
vt 0.219751 0.508710
vt 0.358061 0.387346
vt 0.392658 0.387346
vt 0.271608 0.405422
vt 0.271608 0.422570
vt 0.262217 0.469805
vt 0.262217 0.452657
vt 0.253466 0.387346
vt 0.248017 0.434581
vt 0.185154 0.508710
vt 0.185154 0.422570
vt 0.194544 0.469805
vt 0.194544 0.508710
vt 0.271608 0.508710
vt 0.262217 0.508710
vn 1.0000 0.0000 0.0000
vn 0.4472 0.8944 0.0000
vn -0.6164 -0.0000 -0.7874
vn 0.0000 0.0000 -1.0000
vn 0.0000 1.0000 0.0000
vn 0.0000 0.0000 1.0000
vn -1.0000 -0.0000 0.0000
vn -0.6164 -0.0000 0.7875
vn 0.0000 -1.0000 0.0000
vn -0.7071 0.0000 -0.7071
vn -0.7071 0.0000 0.7071
usemtl Material.011
s 1
f 1/1/1 2/2/1 3/3/2 4/4/2
f 5/5/3 6/6/3 7/7/3 8/8/3
f 9/9/4 5/5/4 8/8/4 10/10/4
f 10/11/5 11/12/5 12/13/5 13/14/5
f 11/12/5 10/11/5 8/15/5 7/16/5 14/17/5 15/18/5
f 16/19/6 4/20/6 12/21/6 11/22/6
f 3/23/4 9/9/4 10/10/4 13/24/4
f 6/25/7 17/26/7 14/27/7 7/28/7
f 17/29/8 18/30/8 15/31/8 14/32/8
f 4/20/2 3/33/2 13/34/1 12/21/1
f 18/30/6 16/19/6 11/22/6 15/31/6
usemtl Material.012
f 2/35/4 19/36/4 20/37/4 21/38/4
f 22/39/6 23/40/6 24/41/6 25/42/6
f 23/40/6 22/39/6 26/43/6 1/44/6
f 1/45/1 26/46/1 19/47/1 2/48/1
f 22/49/9 20/50/9 19/51/9 26/52/9
f 27/53/5 28/54/5 6/55/5 5/56/5
f 28/57/7 29/58/7 30/59/7 31/60/7
f 20/50/9 22/49/9 25/61/9 30/62/9 29/63/9 32/64/9
f 29/58/10 28/57/10 27/65/10 32/66/10
f 25/67/11 24/68/11 31/60/11 30/59/11
f 21/38/4 20/37/4 32/69/4 27/70/4
f 24/71/5 23/72/5 16/73/5 18/74/5
f 28/54/5 31/75/5 17/76/5 6/55/5
f 2/77/5 21/78/5 9/79/5 3/80/5
f 21/78/5 27/53/5 5/56/5 9/79/5
f 31/75/5 24/71/5 18/74/5 17/76/5
f 23/72/5 1/81/5 4/82/5 16/73/5
