# Blender v2.82 (sub 7) OBJ File: 'AKM.blend'
# www.blender.org
mtllib ammo.mtl
o Mag_Cube.000
v 0.627103 -0.245039 -1.065412
v 0.627103 0.188044 -1.065412
v 0.514693 0.188044 -2.338626
v 0.514693 -0.245039 -2.338626
v 2.764876 0.188044 -1.065412
v 2.764876 -0.245039 -1.065412
v 2.567691 -0.245039 -2.338626
v 2.567691 0.188044 -2.338626
v 0.887251 -0.245039 -0.042163
v 0.887251 0.188044 -0.042163
v 3.140646 0.188044 -0.227157
v 3.140646 -0.245038 -0.227157
v 1.514396 -0.245039 1.345024
v 1.514396 0.188044 1.345024
v 3.970128 0.188044 1.032846
v 3.970128 -0.245038 1.032846
v 4.106531 -0.245038 3.984774
v 4.106530 0.188044 3.984774
v 5.201190 0.188044 2.170266
v 5.201190 -0.245038 2.170266
v 4.338227 -0.245038 4.025997
v 4.338227 0.188044 4.025997
v 5.419012 0.188044 2.280862
v 5.419012 -0.245038 2.280862
v 2.666612 -0.245039 2.796762
v 2.666612 0.188044 2.796762
v 4.489758 0.188044 1.613543
v 4.489758 -0.245038 1.613543
v 1.117576 -0.245039 0.584832
v 1.117576 0.188044 0.584832
v 3.472140 0.188044 0.336246
v 3.472140 -0.245038 0.336246
v 2.624660 -0.245039 -1.702019
v 2.624660 0.188044 -1.702019
v 0.529274 0.188044 -1.702019
v 0.529274 -0.245039 -1.702019
v 0.514693 0.299659 -2.481008
v 2.567690 0.299659 -2.481008
v 2.567690 0.197708 -2.479544
v 0.514693 0.197708 -2.479544
v 2.567690 -0.254643 -2.478196
v 0.514693 -0.254643 -2.478196
v 2.567691 -0.352379 -2.482230
v 0.514693 -0.352379 -2.482230
v 2.567690 0.273500 -2.494615
v 0.514693 0.273499 -2.494615
v 0.514693 -0.245039 -2.461777
v 0.514693 -0.277876 -2.494615
v 0.514693 -0.330496 -2.494615
v 2.567691 -0.330496 -2.494615
v 2.567690 0.188044 -2.461777
v 2.567690 0.220882 -2.494615
v 0.514693 0.220882 -2.494615
v 0.514693 0.188044 -2.461777
v 2.567690 -0.277876 -2.494615
v 2.567690 -0.245039 -2.461777
v 2.764876 0.284819 -1.065412
v 2.742121 0.306337 -1.065412
v 2.567691 0.284819 -2.338626
v 2.544935 0.306337 -2.338626
v 0.627103 0.284819 -1.065412
v 0.649086 0.306337 -1.065412
v 0.536676 0.306337 -2.338626
v 0.514693 0.284819 -2.338626
v 2.764876 -0.341815 -1.065412
v 2.742121 -0.363334 -1.065412
v 2.544935 -0.363334 -2.338626
v 2.567691 -0.341815 -2.338626
v 0.649086 -0.363334 -1.065412
v 0.627103 -0.341815 -1.065412
v 0.514693 -0.341815 -2.338626
v 0.536676 -0.363334 -2.338626
v 3.118698 0.306338 -0.225355
v 3.140646 0.284819 -0.227157
v 0.887251 0.284819 -0.042163
v 0.908785 0.306337 -0.043931
v 3.140646 -0.341815 -0.227157
v 3.118698 -0.363333 -0.225355
v 0.908784 -0.363334 -0.043931
v 0.887251 -0.341815 -0.042163
v 3.948771 0.306338 1.035560
v 3.970128 0.284819 1.032846
v 1.535525 0.306337 1.342337
v 1.514396 0.284819 1.345024
v 3.948771 -0.363333 1.035560
v 3.970128 -0.341815 1.032846
v 1.535525 -0.363334 1.342337
v 1.514396 -0.341815 1.345024
v 5.201190 0.284819 2.170266
v 5.192363 0.306338 2.184898
v 4.106530 0.284819 3.984774
v 4.115646 0.306338 3.969664
v 5.201190 -0.341815 2.170266
v 5.192363 -0.363333 2.184898
v 4.106531 -0.341815 3.984774
v 4.115646 -0.363333 3.969664
v 5.419012 0.284819 2.280862
v 5.410006 0.306338 2.295403
v 4.347560 0.306338 4.010926
v 4.338227 0.284819 4.025997
v 5.410006 -0.367201 2.295403
v 5.419012 -0.341815 2.280862
v 4.338227 -0.341815 4.025997
v 4.347561 -0.367201 4.010926
v 4.474711 -0.363333 1.623309
v 4.489758 -0.341815 1.613543
v 2.681965 -0.363334 2.786798
v 2.666612 -0.341815 2.796762
v 2.681965 0.306337 2.786798
v 2.666612 0.284819 2.796762
v 4.474710 0.306338 1.623309
v 4.489758 0.284819 1.613543
v 3.472140 0.284819 0.336246
v 3.450477 0.306338 0.338533
v 3.472140 -0.341815 0.336246
v 3.450477 -0.363333 0.338533
v 1.117576 -0.341815 0.584832
v 1.138931 -0.363334 0.582577
v 1.117576 0.284819 0.584832
v 1.138931 0.306337 0.582577
v 2.601904 0.306337 -1.702019
v 2.624660 0.284819 -1.702019
v 0.551257 0.306337 -1.702019
v 0.529274 0.284819 -1.702019
v 0.529274 -0.341815 -1.702019
v 0.551257 -0.363334 -1.702019
v 2.601904 -0.363334 -1.702019
v 2.624660 -0.341815 -1.702019
v 2.544935 0.306337 -2.461777
v 2.567690 0.299659 -2.481008
v 0.514693 0.299659 -2.481008
v 0.536676 0.306337 -2.461777
v 0.536676 -0.363334 -2.461777
v 0.514693 -0.352379 -2.482230
v 2.567691 -0.352379 -2.482230
v 2.544935 -0.363334 -2.461777
v 17.887020 -0.250366 -2.832366
vt 0.433168 0.048684
vt 0.427542 0.048684
vt 0.427542 0.041647
vt 0.428104 0.040632
vt 0.429451 0.039771
vt 0.432510 0.039771
vt 0.434031 0.040548
vt 0.434031 0.040548
vt 0.317522 0.285563
vt 0.201999 0.341923
vt 0.194891 0.304142
vt 0.317337 0.247874
vt 0.396741 0.085491
vt 0.396741 0.048684
vt 0.402367 0.048684
vt 0.402367 0.085491
vt 0.335553 0.373855
vt 0.351591 0.407017
vt 0.251498 0.466386
vt 0.233347 0.434477
vt 0.358450 0.393848
vt 0.364075 0.393848
vt 0.364075 0.396826
vt 0.363517 0.397223
vt 0.362166 0.397620
vt 0.359108 0.397620
vt 0.357835 0.397320
vt 0.357835 0.397320
vt 0.053210 0.113676
vt 0.067229 0.079383
vt 0.169598 0.139943
vt 0.157696 0.175487
vt 0.394876 0.291610
vt 0.389251 0.291610
vt 0.389251 0.252466
vt 0.394876 0.252466
vt 0.427542 0.122925
vt 0.433168 0.122925
vt 0.433168 0.173656
vt 0.427542 0.173656
vt 0.185656 0.106856
vt 0.085402 0.047548
vt 0.089059 0.041473
vt 0.189312 0.100781
vt 0.427542 0.085491
vt 0.433168 0.085491
vt 0.397598 0.427512
vt 0.403223 0.427502
vt 0.403233 0.440998
vt 0.397607 0.441008
vt 0.364075 0.252466
vt 0.358450 0.252466
vt 0.358450 0.157077
vt 0.364075 0.157077
vt 0.396741 0.251904
vt 0.402367 0.251904
vt 0.402367 0.289001
vt 0.396741 0.289001
vt 0.427542 0.251904
vt 0.433168 0.251904
vt 0.433168 0.289001
vt 0.427542 0.289001
vt 0.428398 0.427453
vt 0.434024 0.427442
vt 0.434034 0.440938
vt 0.428408 0.440949
vt 0.428408 0.381348
vt 0.434034 0.381337
vt 0.349403 0.105085
vt 0.242815 0.048667
vt 0.253150 0.039771
vt 0.356974 0.093187
vt 0.435281 0.379791
vt 0.434030 0.380582
vt 0.428404 0.380582
vt 0.428404 0.289001
vt 0.434030 0.289001
vt 0.435281 0.289764
vt 0.356974 0.413396
vt 0.254651 0.474088
vt 0.254651 0.474088
vt 0.255150 0.472475
vt 0.355243 0.413106
vt 0.356974 0.413396
vt 0.394876 0.157077
vt 0.389251 0.157077
vt 0.389251 0.053014
vt 0.394876 0.053014
vt 0.358450 0.053014
vt 0.364075 0.053014
vt 0.040315 0.363741
vt 0.164355 0.359289
vt 0.183507 0.408186
vt 0.076764 0.464431
vt 0.330288 0.154069
vt 0.206435 0.149537
vt 0.427542 0.208347
vt 0.433168 0.208347
vt 0.192128 0.254851
vt 0.321503 0.198678
vt 0.396741 0.208347
vt 0.402367 0.208347
vt 0.396741 0.173656
vt 0.402367 0.173656
vt 0.394876 0.318823
vt 0.389251 0.318823
vt 0.323664 0.338233
vt 0.219345 0.400108
vt 0.396741 0.122925
vt 0.402367 0.122925
vt 0.364075 0.357178
vt 0.358450 0.357178
vt 0.358450 0.318823
vt 0.364075 0.318823
vt 0.394876 0.357178
vt 0.389251 0.357178
vt 0.389251 0.377691
vt 0.364075 0.377691
vt 0.358450 0.291610
vt 0.364075 0.291610
vt 0.035846 0.171735
vt 0.151552 0.228049
vt 0.151372 0.265663
vt 0.028733 0.209437
vt 0.025972 0.258629
vt 0.155551 0.314763
vt 0.191081 0.420081
vt 0.087107 0.473331
vt 0.364075 0.039895
vt 0.389251 0.039895
vt 0.397607 0.381407
vt 0.403233 0.381396
vt 0.403229 0.380582
vt 0.397603 0.380582
vt 0.396127 0.379791
vt 0.396127 0.289764
vt 0.397603 0.289001
vt 0.403229 0.289001
vt 0.394876 0.039895
vt 0.358450 0.039895
vt 0.358450 0.377691
vt 0.459206 0.156191
vt 0.434031 0.156172
vt 0.434031 0.039771
vt 0.459206 0.039789
vt 0.394876 0.377691
vt 0.394876 0.393848
vt 0.389251 0.393848
vt 0.396127 0.040478
vt 0.396127 0.040478
vt 0.397399 0.039771
vt 0.400458 0.039771
vt 0.401809 0.040709
vt 0.402367 0.041647
vt 0.395739 0.397291
vt 0.395739 0.397291
vt 0.394218 0.397620
vt 0.391160 0.397620
vt 0.389812 0.397256
vt 0.389251 0.396826
vt 0.435281 0.407225
vt 0.435281 0.289004
vt 0.442426 0.289022
vt 0.442426 0.407244
vt 0.447818 0.405576
vt 0.444760 0.405574
vt 0.444760 0.289172
vt 0.447818 0.289175
vt 0.449093 0.289047
vt 0.449093 0.405449
vt 0.434031 0.274520
vt 0.441166 0.156192
vt 0.441166 0.274521
vt 0.088595 0.039771
vt 0.191081 0.100400
vt 0.191081 0.100400
vt 0.088595 0.039771
vt 0.443413 0.405403
vt 0.443413 0.289001
vt 0.442241 0.156191
vt 0.442241 0.274521
vt 0.446817 0.272748
vt 0.443758 0.272746
vt 0.443758 0.156344
vt 0.446817 0.156346
vt 0.443413 0.407223
vt 0.448168 0.156191
vt 0.448168 0.272593
vt 0.442241 0.272604
vt 0.442241 0.156202
vt 0.336773 0.373222
vt 0.352811 0.406383
vt 0.232337 0.435166
vt 0.218335 0.400797
vt 0.052164 0.112939
vt 0.066182 0.078646
vt 0.170785 0.140527
vt 0.158882 0.176072
vt 0.034769 0.171099
vt 0.200959 0.342511
vt 0.318755 0.285043
vt 0.324883 0.337599
vt 0.152752 0.228521
vt 0.322734 0.198220
vt 0.318570 0.247385
vt 0.152572 0.266103
vt 0.024889 0.258050
vt 0.027650 0.208831
vt 0.193846 0.304700
vt 0.396342 0.427166
vt 0.396352 0.380658
vt 0.357199 0.251426
vt 0.357199 0.156515
vt 0.396127 0.052902
vt 0.396127 0.156515
vt 0.331413 0.154146
vt 0.396127 0.039771
vt 0.435270 0.427091
vt 0.435280 0.440576
vt 0.396127 0.440651
vt 0.357199 0.052902
vt 0.356974 0.039771
vt 0.156749 0.315173
vt 0.165447 0.359165
vt 0.396127 0.251426
vt 0.435280 0.380582
vt 0.191081 0.255381
vt 0.250488 0.467075
vt 0.084356 0.046812
vt 0.186842 0.107441
vn 1.0000 -0.0000 -0.0000
vn -0.0000 1.0000 0.0000
vn 0.9960 0.0000 -0.0891
vn -1.0000 0.0000 0.0000
vn 0.0000 -1.0000 0.0000
vn -0.8865 0.0000 0.4627
vn 0.9125 0.0000 -0.4091
vn 0.4527 0.0000 -0.8917
vn -0.7833 0.0000 0.6217
vn 0.7452 0.0000 -0.6668
vn 0.6163 0.0000 -0.7875
vn 0.8502 -0.0000 0.5265
vn -0.0000 0.9447 -0.3281
vn -0.6364 0.0000 0.7714
vn 0.8135 0.0000 -0.5816
vn 0.8619 0.0000 -0.5071
vn -0.9387 0.0000 0.3448
vn 0.9766 0.0000 -0.2151
vn -0.9692 -0.0000 0.2464
vn -0.9884 0.0000 0.1519
vn -0.0143 -0.9999 -0.0087
vn -0.1752 0.0000 0.9845
vn -0.9997 0.0000 0.0229
vn 0.0000 0.0000 -1.0000
vn 0.0000 -0.4925 -0.8703
vn 0.0000 -0.8815 -0.4721
vn -0.0000 0.5771 -0.8167
vn 0.0000 -0.8785 -0.4778
vn -0.0000 0.8632 -0.5049
vn 0.0000 -0.5452 -0.8383
vn -0.0000 0.4614 -0.8872
vn 0.6858 0.7252 -0.0614
vn -0.6955 0.7105 0.1069
vn -0.6955 -0.7105 0.1069
vn 0.6793 -0.7184 -0.1496
vn -0.6887 -0.7036 0.1751
vn -0.6887 0.7036 0.1751
vn 0.6566 0.6944 -0.2944
vn 0.6566 -0.6944 -0.2944
vn 0.6105 0.6609 -0.4364
vn 0.6338 -0.6777 -0.3729
vn -0.6497 -0.6803 0.3392
vn -0.6746 0.6954 0.2478
vn 0.4840 -0.6191 -0.6185
vn -0.5978 -0.6462 0.4744
vn -0.4942 0.6300 0.5990
vn 0.5752 0.6358 -0.5147
vn -0.1391 0.6079 0.7818
vn 0.3549 0.6209 -0.6990
vn 0.3621 -0.5877 -0.7235
vn -0.1479 -0.5756 0.8042
vn 0.5752 -0.6358 -0.5147
vn -0.4942 -0.6300 0.5990
vn -0.5978 0.6462 0.4744
vn 0.4840 0.6191 -0.6185
vn 0.6338 0.6777 -0.3729
vn 0.6105 -0.6609 -0.4364
vn -0.6746 -0.6954 0.2478
vn -0.6497 0.6803 0.3392
vn 0.6793 0.7184 -0.1496
vn -0.6994 0.7145 0.0160
vn -0.6994 -0.7145 0.0160
vn 0.6858 -0.7252 -0.0614
vn 0.5404 0.8401 0.0470
vn -0.5536 0.8315 0.0465
vn -0.6033 -0.7969 0.0316
vn 0.5900 -0.8068 0.0319
usemtl 3
s off
f 59/1/1 8/2/1 51/3/1 39/4/1 52/5/1 45/6/1 38/7/1 130/8/1
f 73/9/2 76/10/2 120/11/2 114/12/2
f 128/13/3 68/14/3 7/15/3 33/16/3
f 121/17/2 60/18/2 63/19/2 123/20/2
f 71/21/4 4/22/4 47/23/4 42/24/4 48/25/4 49/26/4 44/27/4 134/28/4
f 69/29/5 126/30/5 127/31/5 66/32/5
f 119/33/6 30/34/6 14/35/6 84/36/6
f 5/37/7 57/38/7 74/39/7 11/40/7
f 67/41/5 72/42/5 133/43/5 136/44/5
f 34/45/3 8/2/3 59/1/3 122/46/3
f 93/47/8 20/48/8 24/49/8 102/50/8
f 13/51/9 88/52/9 108/53/9 25/54/9
f 86/55/10 16/56/10 28/57/10 106/58/10
f 15/59/10 82/60/10 112/61/10 27/62/10
f 19/63/8 89/64/8 97/65/8 23/66/8
f 27/67/11 112/68/11 89/64/11 19/63/11
f 90/69/2 92/70/2 99/71/2 98/72/2
f 99/73/12 100/74/12 22/75/12 23/76/12 97/77/12 98/78/12
f 38/79/13 37/80/13 131/81/13 132/82/13 129/83/13 130/84/13
f 110/85/14 26/86/14 18/87/14 91/88/14
f 25/54/14 108/53/14 95/89/14 17/90/14
f 107/91/5 105/92/5 94/93/5 96/94/5
f 111/95/2 109/96/2 92/70/2 90/69/2
f 31/97/15 113/98/15 82/60/15 15/59/15
f 114/12/2 120/11/2 83/99/2 81/100/2
f 115/101/15 32/102/15 16/56/15 86/55/15
f 11/40/16 74/39/16 113/98/16 31/97/16
f 77/103/16 12/104/16 32/102/16 115/101/16
f 81/100/2 83/99/2 109/96/2 111/95/2
f 75/105/17 10/106/17 30/34/17 119/33/17
f 58/107/2 62/108/2 76/10/2 73/9/2
f 65/109/18 128/13/18 33/16/18 6/110/18
f 1/111/19 70/112/19 80/113/19 9/114/19
f 5/37/18 34/45/18 122/46/18 57/38/18
f 61/115/19 2/116/19 10/106/19 75/105/19
f 2/116/20 35/117/20 36/118/20 1/111/20
f 65/109/7 6/110/7 12/104/7 77/103/7
f 6/110/18 33/16/18 34/45/18 5/37/18
f 9/114/17 80/113/17 117/119/17 29/120/17
f 12/104/16 11/40/16 31/97/16 32/102/16
f 79/121/5 78/122/5 116/123/5 118/124/5
f 10/106/17 9/114/17 29/120/17 30/34/17
f 29/120/6 117/119/6 88/52/6 13/51/6
f 16/56/10 15/59/10 27/62/10 28/57/10
f 87/125/5 85/126/5 105/92/5 107/91/5
f 14/35/9 13/51/9 25/54/9 26/86/9
f 96/94/21 94/93/21 101/127/21 104/128/21
f 18/87/22 17/90/22 21/129/22 22/130/22
f 106/131/11 28/132/11 20/48/11 93/47/11
f 20/48/8 19/63/8 23/66/8 24/49/8
f 21/133/12 103/134/12 104/135/12 101/136/12 102/137/12 24/138/12
f 22/75/12 21/133/12 24/138/12 23/76/12
f 91/88/22 18/87/22 22/130/22 100/139/22
f 26/86/14 25/54/14 17/90/14 18/87/14
f 17/90/22 95/89/22 103/140/22 21/129/22
f 28/132/11 27/67/11 19/63/11 20/48/11
f 84/36/9 14/35/9 26/86/9 110/85/9
f 30/34/6 29/120/6 13/51/6 14/35/6
f 69/29/5 66/32/5 78/122/5 79/121/5
f 6/110/7 5/37/7 11/40/7 12/104/7
f 118/124/5 116/123/5 85/126/5 87/125/5
f 32/102/15 31/97/15 15/59/15 16/56/15
f 36/118/23 4/22/23 71/21/23 125/141/23
f 4/142/24 3/143/24 8/144/24 7/145/24
f 124/146/23 64/147/23 3/148/23 35/117/23
f 2/116/19 1/111/19 9/114/19 10/106/19
f 7/15/1 68/14/1 135/149/1 43/150/1 50/151/1 55/152/1 41/153/1 56/154/1
f 33/16/3 7/15/3 8/2/3 34/45/3
f 3/148/4 64/147/4 131/155/4 37/156/4 46/157/4 53/158/4 40/159/4 54/160/4
f 35/117/23 3/148/23 4/22/23 36/118/23
f 63/19/2 60/18/2 129/83/2 132/82/2
f 4/161/2 7/162/2 56/163/2 47/164/2
f 126/30/5 72/42/5 67/41/5 127/31/5
f 61/115/20 124/146/20 35/117/20 2/116/20
f 49/165/24 48/166/24 55/167/24 50/168/24
f 49/165/25 50/168/25 43/169/25 44/170/25
f 8/171/5 3/143/5 54/172/5 51/173/5
f 1/111/20 36/118/20 125/141/20 70/112/20
f 44/174/26 43/175/26 135/176/26 136/44/26 133/43/26 134/177/26
f 42/178/27 41/179/27 55/167/27 48/166/27
f 40/180/28 39/181/28 51/173/28 54/172/28
f 53/182/24 46/183/24 45/184/24 52/185/24
f 47/164/29 56/163/29 41/179/29 42/186/29
f 53/182/30 52/185/30 39/187/30 40/188/30
f 45/184/31 46/183/31 37/189/31 38/190/31
f 122/191/32 59/192/32 60/18/32 121/17/32
f 124/193/33 61/194/33 62/108/33 123/20/33
f 126/30/34 69/29/34 70/195/34 125/196/34
f 128/197/35 65/198/35 66/32/35 127/31/35
f 69/29/36 79/121/36 80/199/36 70/195/36
f 76/10/37 62/108/37 61/194/37 75/200/37
f 74/201/38 57/202/38 58/107/38 73/9/38
f 65/198/39 77/203/39 78/122/39 66/32/39
f 114/12/40 81/100/40 82/204/40 113/205/40
f 116/123/41 78/122/41 77/203/41 115/206/41
f 118/124/42 87/125/42 88/207/42 117/208/42
f 120/11/43 76/10/43 75/200/43 119/209/43
f 106/131/44 93/47/44 94/210/44 105/211/44
f 108/53/45 88/52/45 87/212/45 107/213/45
f 110/85/46 91/88/46 92/214/46 109/215/46
f 112/216/47 82/204/47 81/100/47 111/95/47
f 91/88/48 100/139/48 99/217/48 92/214/48
f 97/65/49 89/64/49 90/218/49 98/219/49
f 101/220/50 94/210/50 93/47/50 102/50/50
f 96/221/51 104/222/51 103/140/51 95/89/51
f 86/223/52 106/224/52 105/92/52 85/126/52
f 95/89/53 108/53/53 107/213/53 96/221/53
f 84/36/54 110/85/54 109/215/54 83/225/54
f 89/64/55 112/68/55 111/226/55 90/218/55
f 73/9/56 114/12/56 113/205/56 74/201/56
f 85/126/57 116/123/57 115/206/57 86/223/57
f 79/121/58 118/124/58 117/208/58 80/199/58
f 83/99/59 120/11/59 119/209/59 84/227/59
f 57/202/60 122/191/60 121/17/60 58/107/60
f 64/228/61 124/193/61 123/20/61 63/19/61
f 72/42/62 126/30/62 125/196/62 71/229/62
f 68/230/63 128/197/63 127/31/63 67/41/63
f 129/83/64 60/18/64 59/192/64 130/84/64
f 131/81/65 64/228/65 63/19/65 132/82/65
f 133/43/66 72/42/66 71/229/66 134/177/66
f 135/176/67 68/230/67 67/41/67 136/44/67
f 58/107/2 121/17/2 123/20/2 62/108/2
