# Blender v2.82 (sub 7) OBJ File: 'AKM.blend'
# www.blender.org
mtllib slide.mtl
o Bolt_Cube.004
v 2.027119 0.500395 -2.833139
v 2.027119 0.381715 -3.260829
v -0.142369 0.500395 -2.833139
v -0.142369 0.381714 -3.260829
v 2.027119 0.381714 -2.833138
v 2.027119 0.381714 -3.167593
v -0.142369 0.381714 -2.833138
v -0.142369 0.381714 -3.167593
v 2.027119 0.451968 -3.167593
v 2.027119 0.500395 -3.119167
v -0.142369 0.500395 -3.119167
v -0.142369 0.451968 -3.167593
v 2.027119 0.451968 -3.260829
v -0.142369 0.451968 -3.260829
v -0.142369 0.381714 -3.362139
v 2.027119 0.381715 -3.362139
v -0.142369 0.413894 -3.333912
v -0.142369 0.385667 -3.362139
v 2.027119 0.385667 -3.362139
v 2.027119 0.413894 -3.333912
v 1.612412 0.969123 -3.052336
v 1.575766 0.969123 -3.165117
v 1.635183 0.969123 -3.165117
v 1.635183 0.893003 -3.165117
v 1.660481 0.969123 -3.087260
v 1.660481 0.893003 -3.087260
v 1.726709 0.969123 -3.039143
v 1.726709 0.893003 -3.039143
v 1.808572 0.969123 -3.039143
v 1.808572 0.893003 -3.039143
v 1.874800 0.969123 -3.087261
v 1.874800 0.893003 -3.087260
v 1.900097 0.969123 -3.165117
v 1.900097 0.893003 -3.165117
v 1.874800 0.969123 -3.242973
v 1.874800 0.893003 -3.242973
v 1.808572 0.969123 -3.291090
v 1.808572 0.893003 -3.291090
v 1.726709 0.969123 -3.291090
v 1.726709 0.893003 -3.291090
v 1.660481 0.969123 -3.242973
v 1.660481 0.893003 -3.242973
v 1.708349 0.969123 -2.982634
v 1.826933 0.969123 -2.982634
v 1.922870 0.969123 -3.052336
v 1.959515 0.969123 -3.165117
v 1.922870 0.969123 -3.277898
v 1.826933 0.969123 -3.347600
v 1.708349 0.969123 -3.347600
v 1.612412 0.969123 -3.277897
v 1.612412 1.317850 -3.277898
v 1.575766 1.317850 -3.165117
v 1.708349 1.317850 -3.347600
v 1.826933 1.317850 -3.347600
v 1.922870 1.317850 -3.277898
v 1.959515 1.317850 -3.165117
v 1.922870 1.317849 -3.052337
v 1.826933 1.317849 -2.982634
v 1.708349 1.317849 -2.982634
v 1.612412 1.317849 -3.052337
v 1.659695 1.320626 -3.243545
v 1.634212 1.320626 -3.165117
v 1.726409 1.320626 -3.292015
v 1.808872 1.320626 -3.292015
v 1.875587 1.320626 -3.243545
v 1.901069 1.320626 -3.165117
v 1.875587 1.320626 -3.086690
v 1.808872 1.320626 -3.038219
v 1.726409 1.320626 -3.038219
v 1.659695 1.320626 -3.086690
v 1.684561 1.280181 -3.221030
v 1.664949 1.280181 -3.165117
v 1.735908 1.280181 -3.255586
v 1.799373 1.280181 -3.255586
v 1.850719 1.280181 -3.221030
v 1.870332 1.280181 -3.165117
v 1.850719 1.280181 -3.109205
v 1.799373 1.280181 -3.074648
v 1.735908 1.280181 -3.074648
v 1.684561 1.280181 -3.109204
v 1.660481 0.823184 -3.087260
v 1.635183 0.823184 -3.165117
v 1.726709 0.823184 -3.039143
v 1.808572 0.823184 -3.039143
v 1.874800 0.823184 -3.087260
v 1.900097 0.823184 -3.165117
v 1.874800 0.823184 -3.242973
v 1.808572 0.823184 -3.291090
v 1.726709 0.823184 -3.291090
v 1.660481 0.823184 -3.242973
v 1.660481 0.680732 -2.959326
v 1.635183 0.680732 -3.037182
v 1.726709 0.680732 -2.911208
v 1.808572 0.680732 -2.911208
v 1.874800 0.680732 -2.959326
v 1.900097 0.680732 -3.037183
v 1.874800 0.680732 -3.242972
v 1.808572 0.680732 -3.291090
v 1.726709 0.680732 -3.291090
v 1.660481 0.680732 -3.242972
v 1.660481 0.367395 -2.959326
v 1.635183 0.367395 -3.037182
v 1.726709 0.367395 -2.911208
v 1.808572 0.367395 -2.911208
v 1.874800 0.367395 -2.959326
v 1.900097 0.367395 -3.037182
v 1.874800 0.367395 -3.242972
v 1.808572 0.367395 -3.291090
v 1.726709 0.367395 -3.291090
v 1.660481 0.367395 -3.242972
vt 0.436919 0.210918
vt 0.459515 0.210918
vt 0.459515 0.229037
vt 0.436919 0.229037
vt 0.213023 0.043120
vt 0.320597 0.043120
vt 0.320597 0.464723
vt 0.213023 0.464723
vt 0.213023 0.464723
vt 0.122182 0.464724
vt 0.122181 0.043120
vt 0.213023 0.043120
vt 0.421343 0.464724
vt 0.383171 0.464724
vt 0.383171 0.043120
vt 0.421343 0.043120
vt 0.421343 0.145922
vt 0.421343 0.090337
vt 0.436919 0.080927
vt 0.459515 0.080927
vt 0.459515 0.145922
vt 0.104340 0.464724
vt 0.104340 0.043120
vt 0.459515 0.145922
vt 0.421343 0.201507
vt 0.421343 0.145922
vt 0.350585 0.043120
vt 0.350585 0.464723
vt 0.436919 0.062808
vt 0.459515 0.062808
vt 0.074729 0.464724
vt 0.074728 0.043120
vt 0.049582 0.464724
vt 0.049582 0.043120
vt 0.383171 0.043120
vt 0.383170 0.464723
vt 0.459515 0.248725
vt 0.458244 0.248725
vt 0.449165 0.243239
vt 0.460786 0.464723
vt 0.459515 0.464723
vt 0.459515 0.043120
vt 0.460786 0.043120
vt 0.039183 0.464724
vt 0.039183 0.043120
vt 0.449165 0.048605
vt 0.458244 0.043120
vt 0.459515 0.043120
vt 0.884127 0.904050
vt 0.895386 0.903980
vt 0.895386 0.934296
vt 0.884127 0.934366
vt 0.925307 0.890149
vt 0.917447 0.892348
vt 0.913922 0.888169
vt 0.925307 0.884982
vt 0.899113 0.851663
vt 0.899113 0.858280
vt 0.891174 0.858241
vt 0.891174 0.851624
vt 0.895626 0.934366
vt 0.906885 0.934435
vt 0.906885 0.964751
vt 0.895626 0.964682
vt 0.912590 0.898107
vt 0.912590 0.905225
vt 0.906885 0.906821
vt 0.906885 0.896510
vt 0.943729 0.956256
vt 0.943729 0.949638
vt 0.950415 0.949638
vt 0.950415 0.956256
vt 0.849647 0.903980
vt 0.859331 0.903980
vt 0.859331 0.934302
vt 0.849647 0.934302
vt 0.925307 0.913183
vt 0.933167 0.910983
vt 0.936693 0.915163
vt 0.925307 0.918349
vt 0.958679 0.949638
vt 0.958679 0.956256
vt 0.906885 0.918349
vt 0.916570 0.918349
vt 0.916570 0.948671
vt 0.906885 0.948671
vt 0.938024 0.905225
vt 0.938024 0.898107
vt 0.943729 0.896510
vt 0.943729 0.906821
vt 0.965365 0.949638
vt 0.965365 0.956256
vt 0.884127 0.934422
vt 0.884127 0.964738
vt 0.917447 0.910983
vt 0.913922 0.915163
vt 0.862555 0.903972
vt 0.862555 0.897354
vt 0.870493 0.897315
vt 0.870493 0.903933
vt 0.871303 0.903980
vt 0.871303 0.934302
vt 0.933167 0.892348
vt 0.936692 0.888168
vt 0.878266 0.897363
vt 0.878266 0.903980
vt 0.906885 0.904037
vt 0.906885 0.934353
vt 0.965365 0.851615
vt 0.965365 0.858234
vt 0.958679 0.858234
vt 0.958679 0.851615
vt 0.906885 0.863143
vt 0.913922 0.854801
vt 0.917390 0.858913
vt 0.912497 0.864714
vt 0.950415 0.858234
vt 0.950415 0.851615
vt 0.862555 0.891285
vt 0.870493 0.891246
vt 0.928541 0.918349
vt 0.938226 0.918349
vt 0.938226 0.948671
vt 0.928541 0.948671
vt 0.943729 0.858234
vt 0.943729 0.851615
vt 0.880988 0.903980
vt 0.880988 0.934302
vt 0.906885 0.851615
vt 0.906885 0.858233
vt 0.880473 0.934302
vt 0.880473 0.941473
vt 0.876390 0.940647
vt 0.876390 0.935128
vt 0.936693 0.854802
vt 0.943729 0.863143
vt 0.938118 0.864714
vt 0.933225 0.858913
vt 0.936692 0.881796
vt 0.925307 0.884982
vt 0.925307 0.879900
vt 0.933224 0.877685
vt 0.906885 0.873454
vt 0.912497 0.871884
vt 0.925307 0.851615
vt 0.925307 0.856697
vt 0.943729 0.873454
vt 0.938118 0.871884
vt 0.913922 0.881796
vt 0.917390 0.877685
vt 0.938226 0.925093
vt 0.938277 0.918349
vt 0.942409 0.920374
vt 0.942370 0.925178
vt 0.915811 0.865312
vt 0.916036 0.870690
vt 0.930813 0.861443
vt 0.924944 0.859597
vt 0.938277 0.931981
vt 0.942409 0.930092
vt 0.880473 0.941473
vt 0.880473 0.948643
vt 0.876390 0.947817
vt 0.876390 0.942299
vt 0.938226 0.938868
vt 0.938277 0.931981
vt 0.942409 0.933870
vt 0.942370 0.938784
vt 0.934803 0.871285
vt 0.934579 0.865907
vt 0.919801 0.875155
vt 0.925670 0.877001
vt 0.938277 0.945612
vt 0.942409 0.943588
vt 0.891174 0.864311
vt 0.899113 0.864350
vt 0.886204 0.876741
vt 0.878266 0.876702
vt 0.950415 0.943567
vt 0.958679 0.943567
vt 0.958679 0.864305
vt 0.950415 0.864305
vt 0.878266 0.891293
vt 0.965365 0.943567
vt 0.943729 0.943567
vt 0.906885 0.864302
vt 0.943729 0.864305
vt 0.965365 0.864305
vt 0.878266 0.878910
vt 0.857585 0.878855
vt 0.857585 0.851615
vt 0.878266 0.851670
vt 0.958679 0.876691
vt 0.950415 0.876691
vt 0.849647 0.878894
vt 0.943729 0.931181
vt 0.950415 0.931181
vt 0.943729 0.876691
vt 0.958679 0.931181
vt 0.906885 0.876686
vt 0.965365 0.876691
vt 0.965365 0.931181
vt 0.873836 0.938486
vt 0.876390 0.945256
vt 0.873836 0.963150
vt 0.867150 0.967333
vt 0.858886 0.967333
vt 0.852200 0.963150
vt 0.849647 0.945256
vt 0.852200 0.938486
vt 0.858886 0.934302
vt 0.867150 0.934302
vt 0.950415 0.903936
vt 0.958679 0.903936
vt 0.906885 0.903926
vt 0.886204 0.903980
vt 0.965365 0.903936
vt 0.958679 0.903936
vt 0.965365 0.903936
vt 0.878266 0.903941
vt 0.950415 0.903936
vt 0.849647 0.851654
vt 0.943729 0.903936
vt 0.943729 0.903936
vt 0.949118 0.424707
vt 0.943388 0.426185
vt 0.937519 0.424339
vt 0.933753 0.419875
vt 0.933529 0.414497
vt 0.936931 0.410260
vt 0.942662 0.408782
vt 0.948530 0.410627
vt 0.952296 0.415092
vt 0.952521 0.420470
vn 1.0000 0.0000 0.0000
vn 0.0000 -1.0000 0.0000
vn -0.0000 1.0000 0.0000
vn 0.0000 0.0000 1.0000
vn -1.0000 -0.0000 -0.0000
vn -0.0000 0.7071 -0.7071
vn -0.0000 0.8869 -0.4620
vn -0.0000 0.0000 -1.0000
vn -0.9511 -0.0000 -0.3090
vn -0.9511 -0.0000 0.3090
vn 0.9511 -0.0000 -0.3090
vn -0.5878 0.0000 0.8090
vn 0.5878 -0.0000 -0.8090
vn 0.5878 0.0000 0.8090
vn 0.9511 0.0000 0.3090
vn 0.0474 0.9988 0.0154
vn -0.5878 -0.0000 -0.8090
vn 0.0000 0.6693 0.7430
vn -0.0000 0.9988 -0.0499
vn -0.0474 0.9988 0.0154
vn 0.0293 0.9988 0.0404
vn 0.0293 0.9988 -0.0404
vn -0.0474 0.9988 -0.0154
vn 0.0000 0.9988 0.0499
vn 0.0474 0.9988 -0.0154
vn -0.0293 0.9988 -0.0404
vn -0.0293 0.9988 0.0404
vn 0.7620 0.5950 -0.2558
vn -0.4404 0.6434 -0.6262
vn -0.4404 0.6434 0.6262
vn 0.7620 0.5950 0.2558
vn 0.0000 0.6693 -0.7430
vn -0.7620 0.5950 0.2558
vn 0.4404 0.6434 0.6262
vn 0.4404 0.6434 -0.6262
vn -0.7620 0.5950 -0.2558
vn -0.9164 0.2674 0.2978
vn 0.9925 -0.0000 -0.1220
vn 0.9164 0.2674 0.2978
vn -0.4755 0.5878 0.6545
vn 0.9814 -0.0786 -0.1751
vn 0.0000 0.6682 0.7440
vn -0.9814 -0.0786 -0.1751
vn 0.4755 0.5878 0.6545
vn -0.9925 -0.0000 -0.1220
usemtl 3
s off
f 9/1/1 6/2/1 2/3/1 13/4/1
f 7/5/2 8/6/2 6/7/2 5/8/2
f 1/9/3 10/10/3 11/11/3 3/12/3
f 3/13/4 7/14/4 5/15/4 1/16/4
f 3/17/5 11/18/5 12/19/5 8/20/5 7/21/5
f 9/22/6 12/23/6 11/11/6 10/10/6
f 5/24/1 6/2/1 9/1/1 10/25/1 1/26/1
f 6/7/2 8/6/2 4/27/2 2/28/2
f 8/20/5 12/19/5 14/29/5 4/30/5
f 12/23/3 9/22/3 13/31/3 14/32/3
f 14/32/7 13/31/7 20/33/7 17/34/7
f 2/28/2 4/27/2 15/35/2 16/36/2
f 13/4/1 2/3/1 16/37/1 19/38/1 20/39/1
f 15/40/8 18/41/8 19/42/8 16/43/8
f 19/44/6 18/45/6 17/34/6 20/33/6
f 4/30/5 14/29/5 17/46/5 18/47/5 15/48/5
usemtl 2
f 50/49/9 22/50/9 52/51/9 51/52/9
f 35/53/2 37/54/2 48/55/2 47/56/2
f 23/57/10 24/58/10 26/59/10 25/60/10
f 46/61/11 47/62/11 55/63/11 56/64/11
f 39/65/2 41/66/2 50/67/2 49/68/2
f 25/69/12 26/70/12 28/71/12 27/72/12
f 21/73/12 43/74/12 59/75/12 60/76/12
f 25/77/2 27/78/2 43/79/2 21/80/2
f 27/72/4 28/71/4 30/81/4 29/82/4
f 47/83/13 48/84/13 54/85/13 55/86/13
f 29/87/2 31/88/2 45/89/2 44/90/2
f 29/82/14 30/81/14 32/91/14 31/92/14
f 45/93/15 46/61/15 56/64/15 57/94/15
f 23/95/2 25/77/2 21/80/2 22/96/2
f 31/97/15 32/98/15 34/99/15 33/100/15
f 43/74/4 44/101/4 58/102/4 59/75/4
f 33/103/2 35/53/2 47/56/2 46/104/2
f 33/100/11 34/99/11 36/105/11 35/106/11
f 22/50/10 21/107/10 60/108/10 52/51/10
f 37/54/2 39/65/2 49/68/2 48/55/2
f 35/109/13 36/110/13 38/111/13 37/112/13
f 57/113/16 56/114/16 66/115/16 67/116/16
f 27/78/2 29/87/2 44/90/2 43/79/2
f 37/112/8 38/111/8 40/117/8 39/118/8
f 34/99/15 32/98/15 85/119/15 86/120/15
f 49/121/17 50/122/17 51/123/17 53/124/17
f 39/118/17 40/117/17 42/125/17 41/126/17
f 44/101/14 45/127/14 57/128/14 58/102/14
f 31/88/2 33/103/2 46/104/2 45/89/2
f 41/129/9 42/130/9 24/58/9 23/57/9
f 41/66/2 23/95/2 22/96/2 50/67/2
f 48/84/8 49/121/8 53/124/8 54/85/8
f 64/131/18 63/132/18 73/133/18 74/134/18
f 54/135/19 53/136/19 63/137/19 64/138/19
f 52/139/20 60/140/20 70/141/20 62/142/20
f 58/143/21 57/113/21 67/116/21 68/144/21
f 55/145/22 54/135/22 64/138/22 65/146/22
f 51/147/23 52/139/23 62/142/23 61/148/23
f 59/149/24 58/143/24 68/144/24 69/150/24
f 56/114/25 55/145/25 65/146/25 66/115/25
f 53/136/26 51/147/26 61/148/26 63/137/26
f 60/140/27 59/149/27 69/150/27 70/141/27
f 62/151/28 70/152/28 80/153/28 72/154/28
f 68/144/29 67/116/29 77/155/29 78/156/29
f 65/146/30 64/138/30 74/157/30 75/158/30
f 61/159/31 62/151/31 72/154/31 71/160/31
f 69/161/32 68/162/32 78/163/32 79/164/32
f 66/165/33 65/166/33 75/167/33 76/168/33
f 63/137/34 61/148/34 71/169/34 73/170/34
f 70/141/35 69/150/35 79/171/35 80/172/35
f 67/173/36 66/165/36 76/168/36 77/174/36
f 81/175/37 82/176/37 92/177/37 91/178/37
f 30/81/4 28/71/4 83/179/4 84/180/4
f 40/117/8 38/111/8 88/181/8 89/182/8
f 36/105/11 34/99/11 86/120/11 87/183/11
f 32/91/14 30/81/14 84/180/14 85/184/14
f 28/71/12 26/70/12 81/185/12 83/179/12
f 24/58/9 42/130/9 90/186/9 82/176/9
f 26/59/10 24/58/10 82/176/10 81/175/10
f 42/125/17 40/117/17 89/182/17 90/187/17
f 38/111/13 36/110/13 87/188/13 88/181/13
f 97/189/38 96/190/38 106/191/38 107/192/38
f 89/182/8 88/181/8 98/193/8 99/194/8
f 86/120/39 85/119/39 95/195/39 96/190/39
f 83/179/40 81/185/40 91/196/40 93/197/40
f 90/187/17 89/182/17 99/194/17 100/198/17
f 87/183/41 86/120/41 96/190/41 97/189/41
f 84/180/42 83/179/42 93/197/42 94/199/42
f 82/176/43 90/186/43 100/200/43 92/177/43
f 88/181/13 87/188/13 97/201/13 98/193/13
f 85/184/44 84/180/44 94/199/44 95/202/44
f 101/203/2 102/204/2 110/205/2 109/206/2 108/207/2 107/208/2 106/209/2 105/210/2 104/211/2 103/212/2
f 94/199/4 93/197/4 103/213/4 104/214/4
f 92/177/45 100/200/45 110/215/45 102/216/45
f 98/193/13 97/201/13 107/217/13 108/218/13
f 95/202/14 94/199/14 104/214/14 105/219/14
f 91/178/10 92/177/10 102/216/10 101/220/10
f 99/194/8 98/193/8 108/218/8 109/221/8
f 96/190/15 95/195/15 105/222/15 106/191/15
f 93/197/12 91/196/12 101/223/12 103/213/12
f 100/198/17 99/194/17 109/221/17 110/224/17
usemtl 4
f 72/225/3 80/226/3 79/227/3 78/228/3 77/229/3 76/230/3 75/231/3 74/232/3 73/233/3 71/234/3
