# Blender v2.79 (sub 0) OBJ File: ''
# www.blender.org
mtllib ammo.mtl
o Mag_Cube.010
v -2.303927 -0.247015 -3.235188
v -2.303927 -0.247015 -3.235188
v -2.307805 -0.202888 -3.235188
v -2.307805 -0.202888 -3.235188
v -2.280836 -0.270079 -0.483248
v -2.208934 -0.203533 -0.483248
v -2.211129 0.096095 -0.483248
v -2.283998 0.161580 -0.483248
v -2.674487 0.158720 -0.483248
v -2.671325 -0.272939 -0.483248
v -1.867058 0.164635 -3.235188
v -2.248238 0.161843 -3.235188
v -3.006801 -0.275396 -0.483248
v -3.009963 0.156262 -0.483248
v -3.434653 0.153152 -0.483248
v -3.506706 0.086605 -0.483248
v -3.504512 -0.213023 -0.483248
v -3.431491 -0.278507 -0.483248
v -2.306711 0.133059 -3.235188
v -2.306749 0.138183 -3.235188
v -2.309980 0.094003 -3.235188
v -2.309951 0.090054 -3.235188
v -1.791994 -0.200478 -3.235188
v -1.794189 0.099150 -3.235188
v -3.565397 0.108727 -0.485576
v -3.562871 -0.236003 -0.485576
v -3.562872 -0.236003 -0.385374
v -3.565397 0.108727 -0.385374
v -2.141777 -0.327434 -0.386268
v -2.055281 -0.224959 -0.386990
v -2.057806 0.119770 -0.386990
v -2.145794 0.220967 -0.386268
v -3.474140 0.211237 -0.387839
v -3.470123 -0.337165 -0.387839
v -2.055281 -0.224959 -0.485576
v -2.141777 -0.327434 -0.511434
v -3.440173 -0.336945 -0.485576
v -3.444190 0.211456 -0.485576
v -2.145794 0.220967 -0.511434
v -2.057806 0.119770 -0.485576
v -2.278270 -0.270059 -3.235188
v -2.283021 -0.220611 -3.235188
v -2.731851 -0.250151 -0.483248
v -2.756865 -0.273566 -0.483248
v -2.923776 -0.274788 -0.483248
v -2.949131 -0.251743 -0.483248
v -2.949168 -0.246619 -0.483248
v -2.731888 -0.245027 -0.483248
v -2.518000 0.136635 -3.235188
v -2.951952 0.133456 -0.483248
v -2.951915 0.128332 -0.483248
v -2.517962 0.131512 -3.235188
v -3.052531 0.089932 -3.235188
v -3.050336 -0.209695 -3.235188
v -1.923306 0.114741 -3.235188
v -1.857943 0.064336 -3.235188
v -2.297736 0.061113 -0.525543
v -2.363099 0.111519 -0.525543
v -2.245076 -0.269816 -3.235188
v -1.863896 -0.267023 -3.235188
v -2.574405 0.159454 -3.235188
v -2.980478 0.156479 -3.235188
v -2.281432 0.161600 -3.235188
v -2.709356 0.158464 -0.483248
v -2.731851 -0.250151 -0.483248
v -2.734672 0.135047 -0.483248
v -2.760026 0.158093 -0.483248
v -2.926938 0.156871 -0.483248
v -2.951952 0.133456 -0.483248
v -2.949131 -0.251743 -0.483248
v -2.734672 0.135047 -0.483248
v -2.734635 0.129924 -0.483248
v -2.515178 -0.248563 -3.235188
v -2.515215 -0.243439 -3.235188
v -1.856251 -0.166601 -3.235188
v -2.303965 -0.241891 -3.235188
v -2.706194 -0.273194 -0.483248
v -2.977618 0.156499 -0.483248
v -2.543665 0.159679 -3.235188
v -2.307834 -0.198938 -3.235188
v -2.306749 0.138183 -3.235188
v -2.285458 0.112088 -3.235188
v -2.309980 0.094003 -3.235188
v -2.974456 -0.275159 -0.483248
v -2.518000 0.136635 -3.235188
v -2.540503 -0.271980 -3.235188
v -2.515178 -0.248563 -3.235188
v -2.571244 -0.272205 -3.235188
v -2.977316 -0.275179 -3.235188
v -2.514292 0.088557 -3.235188
v -2.749744 0.086832 -0.525543
v -2.954085 0.085335 -0.525543
v -1.920869 -0.217959 -3.235188
v -2.360662 -0.221181 -0.525543
v -2.296045 -0.169824 -0.525543
v -2.539113 0.110230 -3.235188
v -2.514321 0.092506 -3.235188
v -2.954114 0.089284 -0.525543
v -2.978906 0.107008 -0.525543
v -2.920538 -0.225281 -3.235188
v -2.986037 -0.174877 -3.235188
v -3.425830 -0.178100 -0.525543
v -3.360332 -0.228504 -0.525543
v -2.512146 -0.204384 -3.235188
v -2.536676 -0.222469 -3.235188
v -2.976469 -0.225692 -0.525543
v -2.951939 -0.207607 -0.525543
v -2.749773 0.090780 -0.525543
v -2.512146 -0.204384 -3.235188
v -2.512175 -0.200435 -3.235188
v -2.922975 0.107418 -3.235188
v -2.987729 0.056060 -3.235188
v -2.250913 -0.220376 -3.235188
v -2.253350 0.112324 -3.235188
v -2.568848 0.110013 -3.235188
v -2.514321 0.092506 -3.235188
v -2.566411 -0.222687 -3.235188
v -2.690706 -0.223599 -0.525543
v -2.693143 0.109101 -0.525543
v -3.008641 0.106790 -0.525543
v -3.006204 -0.225910 -0.525543
v -3.427522 0.052838 -0.525543
v -3.362769 0.104196 -0.525543
v -2.951939 -0.207607 -0.525543
v -2.954114 0.089284 -0.525543
v -2.951968 -0.203658 -0.525543
v -2.722814 -0.223834 -0.525543
v -2.747598 -0.206110 -0.525543
v -2.749773 0.090780 -0.525543
v -2.725251 0.108866 -0.525543
v -2.747627 -0.202161 -0.525543
v -2.747598 -0.206110 -0.525543
vt 0.388870 0.579544
vt 0.388870 0.579544
vt 0.388870 0.579544
vt 0.388870 0.579544
vt 0.474516 0.732746
vt 0.478020 0.728966
vt 0.493923 0.728966
vt 0.497427 0.732746
vt 0.497427 0.753135
vt 0.474516 0.753135
vt 0.450870 0.725453
vt 0.451446 0.580124
vt 0.471438 0.583183
vt 0.471350 0.728586
vt 0.474516 0.770652
vt 0.497427 0.770652
vt 0.497427 0.792828
vt 0.493923 0.796615
vt 0.478020 0.796615
vt 0.474516 0.792828
vt 0.501235 0.729233
vt 0.501257 0.728966
vt 0.501257 0.731279
vt 0.501240 0.731485
vt 0.636994 0.724857
vt 0.636994 0.579544
vt 0.652897 0.579544
vt 0.652897 0.724857
vt 0.441291 0.729524
vt 0.441291 0.747524
vt 0.436023 0.747524
vt 0.436023 0.729524
vt 0.551605 0.731212
vt 0.557010 0.726656
vt 0.575307 0.726656
vt 0.580713 0.731212
vt 0.580713 0.800572
vt 0.575307 0.805376
vt 0.557010 0.805376
vt 0.551605 0.800572
vt 0.525677 0.726839
vt 0.531082 0.731394
vt 0.531082 0.799191
vt 0.525677 0.805559
vt 0.507379 0.805559
vt 0.501974 0.799191
vt 0.501974 0.731394
vt 0.507379 0.726839
vt 0.430176 0.752842
vt 0.430176 0.734841
vt 0.435361 0.734841
vt 0.435361 0.752842
vt 0.587356 0.800825
vt 0.588685 0.733028
vt 0.593871 0.731460
vt 0.593999 0.800821
vt 0.588681 0.726660
vt 0.593999 0.726656
vt 0.429440 0.729524
vt 0.436023 0.729524
vt 0.436023 0.758159
vt 0.429440 0.758159
vt 0.587356 0.800825
vt 0.582038 0.800821
vt 0.582042 0.794454
vt 0.587228 0.796021
vt 0.580713 0.726656
vt 0.587356 0.726660
vt 0.388870 0.731040
vt 0.390103 0.729710
vt 0.392446 0.729524
vt 0.391496 0.730811
vt 0.499980 0.728966
vt 0.501213 0.730281
vt 0.501213 0.738997
vt 0.499980 0.740312
vt 0.499708 0.740312
vt 0.499708 0.728966
vt 0.677957 0.579544
vt 0.677957 0.724976
vt 0.677685 0.724976
vt 0.677685 0.579544
vt 0.621090 0.725124
vt 0.621090 0.579544
vt 0.636994 0.579544
vt 0.636994 0.725124
vt 0.555010 0.726113
vt 0.551605 0.726656
vt 0.551605 0.583323
vt 0.555010 0.582780
vt 0.477683 0.728494
vt 0.478171 0.583091
vt 0.498175 0.580110
vt 0.498175 0.725440
vt 0.444041 0.583588
vt 0.444125 0.729067
vt 0.422835 0.725764
vt 0.421775 0.580134
vt 0.473179 0.583449
vt 0.473179 0.728866
vt 0.474516 0.757602
vt 0.475749 0.756287
vt 0.496194 0.756287
vt 0.497427 0.757602
vt 0.497427 0.766317
vt 0.496194 0.767632
vt 0.475749 0.767632
vt 0.474516 0.766317
vt 0.471218 0.740416
vt 0.469985 0.739101
vt 0.469985 0.730385
vt 0.471218 0.729070
vt 0.471490 0.729070
vt 0.471490 0.740416
vt 0.677413 0.724976
vt 0.677413 0.579544
vt 0.677685 0.579544
vt 0.677685 0.724976
vt 0.408277 0.756457
vt 0.392374 0.756457
vt 0.394197 0.753115
vt 0.406454 0.753115
vt 0.678229 0.579544
vt 0.678229 0.724937
vt 0.677957 0.724937
vt 0.677957 0.579544
vt 0.678229 0.724937
vt 0.678229 0.579544
vt 0.678501 0.579544
vt 0.678501 0.724937
vt 0.497427 0.754956
vt 0.474516 0.754956
vt 0.445737 0.583851
vt 0.445737 0.729317
vt 0.598946 0.724540
vt 0.610174 0.579544
vt 0.621090 0.582062
vt 0.610174 0.727130
vt 0.501235 0.731485
vt 0.501213 0.731218
vt 0.501218 0.728966
vt 0.501235 0.729172
vt 0.676547 0.722829
vt 0.676547 0.868295
vt 0.665471 0.870013
vt 0.665155 0.724597
vt 0.410548 0.729710
vt 0.411781 0.731040
vt 0.409155 0.730811
vt 0.408204 0.729524
vt 0.475853 0.728767
vt 0.476430 0.583351
vt 0.411781 0.752677
vt 0.409155 0.749721
vt 0.474516 0.768964
vt 0.497427 0.768964
vt 0.388870 0.579544
vt 0.388870 0.579544
vt 0.388870 0.579544
vt 0.388870 0.579544
vt 0.388870 0.579544
vt 0.388870 0.579544
vt 0.388870 0.579544
vt 0.388870 0.579544
vt 0.388870 0.579544
vt 0.388870 0.579544
vt 0.388870 0.579544
vt 0.388870 0.579544
vt 0.388870 0.579544
vt 0.388870 0.579544
vt 0.388870 0.579544
vt 0.388870 0.579544
vt 0.388870 0.579544
vt 0.388870 0.579544
vt 0.388870 0.579544
vt 0.388870 0.579544
vt 0.388870 0.579544
vt 0.388870 0.579544
vt 0.388870 0.579544
vt 0.388870 0.579544
vt 0.388870 0.579544
vt 0.388870 0.579544
vt 0.417972 0.579544
vt 0.417972 0.725009
vt 0.416635 0.725217
vt 0.416635 0.579751
vt 0.447074 0.584058
vt 0.447074 0.729524
vt 0.474516 0.583654
vt 0.474516 0.729070
vt 0.474516 0.728966
vt 0.475092 0.583551
vt 0.414939 0.725480
vt 0.415023 0.580001
vt 0.388870 0.729524
vt 0.389930 0.583894
vt 0.393733 0.583304
vt 0.392673 0.728934
vt 0.501974 0.579544
vt 0.501974 0.724874
vt 0.447074 0.724872
vt 0.447650 0.579544
vt 0.419032 0.725174
vt 0.417972 0.579544
vt 0.663603 0.866167
vt 0.652898 0.867877
vt 0.652897 0.724543
vt 0.663603 0.722834
vt 0.575275 0.579544
vt 0.578680 0.580087
vt 0.578680 0.723420
vt 0.575275 0.722877
vt 0.550313 0.579750
vt 0.551605 0.579544
vt 0.551605 0.722877
vt 0.550313 0.723083
vt 0.523377 0.582961
vt 0.526789 0.583506
vt 0.526789 0.726839
vt 0.523377 0.726294
vt 0.501974 0.579544
vt 0.503266 0.579750
vt 0.503266 0.723083
vt 0.501974 0.722877
vt 0.679129 0.579544
vt 0.679339 0.579544
vt 0.679339 0.722829
vt 0.679129 0.722829
vt 0.501257 0.729233
vt 0.501277 0.728966
vt 0.501277 0.731278
vt 0.501262 0.731484
vt 0.466481 0.729070
vt 0.469985 0.732858
vt 0.467359 0.735842
vt 0.464658 0.732441
vt 0.388870 0.752677
vt 0.388870 0.732774
vt 0.391496 0.732488
vt 0.391496 0.749721
vt 0.469985 0.755666
vt 0.468752 0.756998
vt 0.466408 0.757173
vt 0.467359 0.755885
vt 0.551022 0.726839
vt 0.551022 0.737870
vt 0.548741 0.737684
vt 0.548741 0.727014
vt 0.411781 0.732774
vt 0.409155 0.732488
vt 0.469985 0.754061
vt 0.467359 0.754332
vt 0.388870 0.579544
vt 0.388870 0.579544
vt 0.447074 0.732858
vt 0.450578 0.729070
vt 0.452401 0.732441
vt 0.449700 0.735842
vt 0.501298 0.731484
vt 0.501277 0.731217
vt 0.501282 0.728966
vt 0.501298 0.729172
vt 0.388870 0.579544
vt 0.388870 0.579544
vt 0.447074 0.754061
vt 0.449700 0.754332
vt 0.497427 0.739997
vt 0.497427 0.728966
vt 0.499708 0.729141
vt 0.499708 0.739811
vt 0.448307 0.756998
vt 0.447074 0.755666
vt 0.449700 0.755885
vt 0.450650 0.757173
vt 0.388870 0.579544
vt 0.388870 0.579544
vt 0.548741 0.757706
vt 0.546040 0.761100
vt 0.533782 0.761100
vt 0.531082 0.757706
vt 0.531082 0.740473
vt 0.548741 0.740473
vt 0.411781 0.732364
vt 0.429440 0.732364
vt 0.429440 0.750855
vt 0.426739 0.754256
vt 0.414482 0.754256
vt 0.411781 0.750855
vt 0.388870 0.579544
vt 0.388870 0.579544
vt 0.388870 0.579544
vt 0.388870 0.579544
vt 0.388870 0.579544
vt 0.388870 0.579544
vt 0.531082 0.738796
vt 0.532032 0.737509
vt 0.547790 0.737509
vt 0.548741 0.738796
vt 0.547581 0.737509
vt 0.532242 0.737509
vt 0.532242 0.726839
vt 0.547581 0.726839
vt 0.411781 0.730812
vt 0.412731 0.729524
vt 0.428490 0.729524
vt 0.429440 0.730812
vt 0.547790 0.737509
vt 0.532032 0.737509
vt 0.526789 0.583506
vt 0.530201 0.582961
vt 0.530201 0.726294
vt 0.526789 0.726839
vt 0.504824 0.579999
vt 0.504824 0.723332
vt 0.388870 0.579544
vt 0.388870 0.579544
vt 0.677413 0.722829
vt 0.665155 0.722829
vt 0.665155 0.579544
vt 0.677413 0.579544
vt 0.548755 0.579999
vt 0.548755 0.723332
vt 0.575275 0.722877
vt 0.573984 0.723083
vt 0.573984 0.579750
vt 0.575275 0.579544
vt 0.647700 0.869899
vt 0.636994 0.868190
vt 0.636994 0.724857
vt 0.647700 0.726566
vt 0.678920 0.579544
vt 0.679129 0.579544
vt 0.679129 0.722834
vt 0.678920 0.722834
vt 0.388870 0.579544
vt 0.388870 0.579544
vt 0.652897 0.579544
vt 0.665155 0.579544
vt 0.665155 0.722834
vt 0.652898 0.722834
vt 0.595972 0.582848
vt 0.595972 0.726182
vt 0.572301 0.723352
vt 0.572301 0.580019
vt 0.678501 0.579544
vt 0.678710 0.579544
vt 0.678710 0.722834
vt 0.678501 0.722834
vt 0.597654 0.583117
vt 0.597654 0.726450
vt 0.678710 0.579544
vt 0.678920 0.579544
vt 0.678920 0.722829
vt 0.678710 0.722829
vt 0.598946 0.583323
vt 0.598946 0.726656
vn 0.0000 0.0000 1.0000
vn 0.0002 0.0000 1.0000
vn -0.0073 1.0000 0.0000
vn -0.0017 0.0000 1.0000
vn -0.0004 -0.0000 1.0000
vn -0.0007 -0.0000 1.0000
vn 0.9887 0.0072 0.1498
vn -1.0000 -0.0073 -0.0000
vn 0.0007 0.0000 1.0000
vn -0.0033 -0.0000 -1.0000
vn 1.0000 0.0073 0.0000
vn -0.6916 0.7147 -0.1039
vn 0.7546 0.6561 0.0000
vn 0.7642 -0.6450 -0.0000
vn -0.6811 -0.7248 -0.1039
vn 0.0073 -1.0000 -0.0000
vn 0.0000 0.0000 -1.0000
vn 0.9878 0.0071 0.1558
vn -0.9866 -0.0072 -0.1628
vn -0.6076 -0.7880 -0.0996
vn 0.9878 0.0072 0.1558
vn -0.9881 -0.0073 -0.1537
vn -0.9881 -0.0072 -0.1537
vn 0.0003 0.0000 1.0000
vn 0.0004 0.0000 1.0000
vn 0.6751 -0.7301 0.1056
vn 0.6643 0.7399 0.1056
vn -0.6753 0.7301 -0.1042
vn -0.6646 -0.7399 -0.1042
vn -0.6636 -0.7399 -0.1104
vn 0.6757 -0.7301 0.1016
vn 0.6650 0.7399 0.1016
vn -0.6743 0.7301 -0.1104
vn -0.6191 0.7790 -0.0996
vn -0.5790 -0.8098 -0.0949
vn 0.6068 0.7886 0.0994
vn -0.5907 0.8013 -0.0949
vn 0.9871 0.0072 0.1602
vn 0.0005 -0.0000 1.0000
vn -0.0001 0.0000 1.0000
vn 0.0008 -0.0000 1.0000
vn 0.0017 -0.0000 1.0000
vn 0.6183 -0.7796 0.0994
vn 0.5909 -0.8012 0.0949
vn -0.9871 -0.0073 -0.1602
vn -0.9871 -0.0072 -0.1602
vn 0.9871 0.0073 0.1602
vn 0.5791 0.8097 0.0949
usemtl 2
s 1
f 1/1/1 2/2/1 3/3/2 4/4/1
f 5/5/1 6/6/1 7/7/1 8/8/1 9/9/1 10/10/1
f 8/11/3 11/12/3 12/13/3 9/14/3
f 13/15/1 14/16/1 15/17/1 16/18/1 17/19/1 18/20/1
f 19/21/4 20/22/5 21/23/6 22/24/4
f 6/25/7 23/26/7 24/27/7 7/28/7
f 25/29/8 26/30/8 27/31/8 28/32/8
f 29/33/9 30/34/9 31/35/9 32/36/9 33/37/9 28/38/9 27/39/9 34/40/9
f 35/41/10 36/42/10 37/43/10 26/44/10 25/45/10 38/46/10 39/47/10 40/48/10
f 35/49/11 40/50/11 31/51/11 30/52/11
f 39/53/3 38/54/3 33/55/3 32/56/3
f 25/57/12 28/58/12 33/55/12 38/54/12
f 31/51/13 40/50/13 39/59/13 32/60/13
f 35/49/14 30/52/14 29/61/14 36/62/14
f 27/63/15 26/64/15 37/65/15 34/66/15
f 37/65/16 36/67/16 29/68/16 34/66/16
f 41/69/17 1/70/17 4/71/17 42/72/17
f 43/73/17 44/74/17 45/75/17 46/76/17 47/77/17 48/78/17
f 49/79/18 50/80/18 51/81/18 52/82/18
f 16/83/19 53/84/19 54/85/19 17/86/19
f 55/87/20 56/88/20 57/89/20 58/90/20
f 10/91/16 59/92/16 60/93/16 5/94/16
f 14/95/3 61/96/3 62/97/3 15/98/3
f 9/14/3 12/13/3 63/99/3 64/100/3
f 44/101/1 65/102/1 66/103/1 67/104/1 68/105/1 69/106/1 70/107/1 45/108/1
f 50/109/17 68/110/17 67/111/17 71/112/17 72/113/17 51/114/17
f 46/115/21 73/116/21 74/117/21 47/118/21
f 24/119/17 23/120/17 75/121/17 56/122/17
f 2/123/22 43/124/22 48/125/22 76/126/22
f 71/127/23 20/128/23 19/129/23 72/130/23
f 10/10/1 9/9/1 64/131/1 66/103/1 65/102/1 77/132/1
f 78/133/3 79/134/3 61/96/3 14/95/3
f 72/135/3 19/136/3 52/137/3 51/138/3
f 2/139/1 76/140/24 80/141/24 3/142/2
f 47/143/16 74/144/16 76/145/16 48/146/16
f 81/147/17 63/148/17 82/149/17 83/150/17
f 77/151/16 41/152/16 59/92/16 10/91/16
f 11/153/17 24/119/17 56/122/17 55/154/17
f 84/155/1 70/107/1 69/106/1 78/156/1 14/16/1 13/15/1
f 84/157/1 46/158/1 45/159/1 70/160/1
f 79/161/1 49/162/25 85/163/1
f 73/164/1 86/165/1 87/166/1
f 50/167/1 78/168/1 69/169/1 68/170/1
f 41/171/1 2/2/1 1/1/1
f 64/172/1 71/173/1 67/174/1 66/175/1
f 43/176/17 77/177/1 65/178/1 44/179/1
f 20/180/5 63/181/1 81/182/1
f 73/183/26 46/184/26 84/185/26 86/186/26
f 79/134/27 78/133/27 50/187/27 49/188/27
f 20/189/28 71/190/28 64/100/28 63/99/28
f 41/152/29 77/151/29 43/191/29 2/192/29
f 13/193/16 88/194/16 86/186/16 84/185/16
f 17/195/30 54/196/30 89/197/30 18/198/30
f 23/199/31 6/200/31 5/94/31 60/93/31
f 11/12/32 8/11/32 7/201/32 24/202/32
f 53/203/33 16/204/33 15/98/33 62/97/33
f 18/198/16 89/197/16 88/194/16 13/193/16
f 90/205/16 22/206/16 91/207/16 92/208/16
f 75/209/34 93/210/34 94/211/34 95/212/34
f 96/213/35 97/214/35 98/215/35 99/216/35
f 100/217/36 101/218/36 102/219/36 103/220/36
f 104/221/37 105/222/37 106/223/37 107/224/37
f 22/225/38 21/226/38 108/227/38 91/228/38
f 74/229/39 73/230/1 109/231/40 110/232/39
f 53/233/17 62/234/17 111/235/17 112/236/17
f 60/237/17 59/238/17 113/239/17 93/240/17
f 79/241/17 85/242/17 97/243/17 96/244/17
f 52/245/17 19/246/17 22/247/17 90/248/17
f 12/249/17 11/153/17 55/154/17 114/250/17
f 61/251/17 79/241/17 96/244/17 115/252/17
f 85/163/1 49/162/25 116/253/41 97/254/1
f 89/255/17 54/256/17 101/257/17 100/258/17
f 49/259/25 52/260/42 90/261/42 116/262/41
f 73/164/1 87/166/1 104/263/1 109/264/40
f 88/265/17 89/255/17 100/258/17 117/266/17
f 23/120/17 60/237/17 93/240/17 75/121/17
f 76/267/17 74/268/17 110/269/17 80/270/17
f 87/271/17 86/272/17 105/273/17 104/274/17
f 54/256/17 53/233/17 112/236/17 101/257/17
f 86/272/17 88/265/17 117/266/17 105/273/17
f 63/148/17 12/249/17 114/250/17 82/149/17
f 20/180/5 81/182/1 83/275/1 21/276/6
f 59/238/17 41/69/17 42/72/17 113/239/17
f 62/234/17 61/251/17 115/252/17 111/235/17
f 58/277/17 57/278/17 95/279/17 94/280/17 118/281/17 119/282/17
f 120/283/17 121/284/17 103/285/17 102/286/17 122/287/17 123/288/17
f 124/289/17 107/290/17 98/291/17 125/292/17 92/293/17 126/294/17
f 119/282/17 118/281/17 127/295/17 128/296/17 129/297/17 130/298/17
f 91/299/17 131/300/17 126/301/17 92/302/17
f 99/303/17 98/304/17 107/305/17 106/306/17 121/284/17 120/283/17
f 108/307/1 129/297/1 128/296/1 132/308/1 131/300/1 91/299/1
f 112/309/43 111/310/43 123/311/43 122/312/43
f 117/313/3 100/217/3 103/220/3 121/314/3
f 4/4/1 3/3/2 132/315/1 128/316/1
f 101/317/38 112/318/38 122/319/38 102/320/38
f 115/321/16 96/213/16 99/216/16 120/322/16
f 83/323/44 82/324/44 130/325/44 129/326/44
f 80/327/3 110/328/3 126/329/3 131/330/3
f 111/310/16 115/321/16 120/322/16 123/311/16
f 116/331/45 90/332/45 92/333/45 125/334/45
f 21/276/6 83/275/1 129/335/1 108/336/1
f 56/337/46 75/338/46 95/339/46 57/340/46
f 93/210/3 113/341/3 118/342/3 94/211/3
f 82/324/16 114/343/16 119/344/16 130/325/16
f 110/345/46 109/346/46 124/347/46 126/348/46
f 114/343/16 55/87/16 58/90/16 119/344/16
f 113/341/3 42/349/3 127/350/3 118/342/3
f 105/222/3 117/313/3 121/314/3 106/223/3
f 109/264/40 104/263/1 107/290/1 124/289/1
f 97/254/1 116/253/41 125/292/1 98/291/1
f 3/351/47 80/352/47 131/353/47 132/354/47
f 42/349/48 4/355/48 128/356/48 127/350/48
